<svg width="163" height="87" viewBox="0 0 163 87" fill="none" xmlns="http://www.w3.org/2000/svg">
<path d="M71.2737 51.4982C71.039 51.4982 70.8044 51.4022 70.5697 51.2102C70.3457 51.0289 70.1484 50.7249 69.9777 50.2982C69.807 49.8715 69.6897 49.3062 69.6257 48.6022C69.5724 48.1755 69.4657 47.8395 69.3057 47.5942C69.167 47.4022 69.0977 47.1995 69.0977 46.9862C69.0977 46.8262 69.1617 46.6395 69.2897 46.4262C69.3537 46.3302 69.3964 46.2289 69.4177 46.1222C69.4497 46.0155 69.4657 45.8289 69.4657 45.5622L69.4177 43.1942C69.4177 42.8849 69.3217 42.6022 69.1297 42.3462C68.9164 42.0475 68.8097 41.7755 68.8097 41.5302C68.8097 41.3382 68.8524 41.1622 68.9377 41.0022C69.023 40.8422 69.119 40.6875 69.2257 40.5382C69.3324 40.3889 69.4177 40.2449 69.4817 40.1062C69.567 39.9035 69.7164 39.7382 69.9297 39.6102C70.143 39.4822 70.3617 39.4182 70.5857 39.4182C70.7564 39.4182 70.9164 39.4609 71.0657 39.5462C71.215 39.6209 71.4817 39.6582 71.8657 39.6582C72.2604 39.6582 72.735 39.6369 73.2897 39.5942C73.951 39.5409 74.607 39.5142 75.2577 39.5142C75.6737 39.5142 76.063 39.5355 76.4257 39.5782C76.7884 39.6209 77.0977 39.7009 77.3537 39.8182C77.6204 39.9249 77.8177 40.0742 77.9457 40.2662C78.0737 40.4475 78.1377 40.6289 78.1377 40.8102C78.1377 41.0555 78.0417 41.2742 77.8497 41.4662C77.6577 41.6475 77.3857 41.7382 77.0337 41.7382L76.7617 41.7222C76.335 41.6689 75.903 41.6422 75.4657 41.6422C74.5804 41.6422 73.695 41.7115 72.8097 41.8502H72.7937C72.495 41.8715 72.303 41.9195 72.2177 41.9942C72.1324 42.0582 72.0897 42.2449 72.0897 42.5542L72.1057 43.6742H72.1697C72.1697 43.9515 72.1644 44.1915 72.1537 44.3942V44.7622C72.1537 45.0182 72.175 45.1889 72.2177 45.2742C72.2604 45.3489 72.351 45.3862 72.4897 45.3862C72.5964 45.3862 72.719 45.3755 72.8577 45.3542C73.007 45.3329 73.1724 45.3169 73.3537 45.3062L74.1057 45.2422C74.6604 45.1889 75.087 45.1622 75.3857 45.1622C75.7484 45.1622 76.0417 45.2315 76.2657 45.3702C76.6284 45.6262 76.8097 45.9089 76.8097 46.2182C76.8097 46.4849 76.687 46.7302 76.4417 46.9542C76.207 47.1782 75.8657 47.3222 75.4177 47.3862L74.1537 47.5302C73.3644 47.5942 72.831 47.6689 72.5537 47.7542C72.2764 47.8395 72.1377 48.0315 72.1377 48.3302C72.1377 48.5115 72.1697 48.7622 72.2337 49.0822C72.3297 49.6262 72.3777 49.9835 72.3777 50.1542C72.3777 50.5382 72.2657 50.8582 72.0417 51.1142C71.8177 51.3702 71.5617 51.4982 71.2737 51.4982ZM92.5883 51.5142C92.055 51.5142 91.5483 51.3915 91.0683 51.1462C90.5883 50.9009 90.1777 50.5169 89.8363 49.9942C89.3243 49.1835 89.0683 48.1649 89.0683 46.9382C89.0683 46.3622 89.111 45.7755 89.1963 45.1782C89.2817 44.5702 89.3777 43.9729 89.4843 43.3862C89.5803 42.8635 89.6657 42.3622 89.7403 41.8822C89.815 41.3915 89.8523 40.9382 89.8523 40.5222V40.4102C89.8417 40.1115 89.6283 39.9622 89.2123 39.9622C88.679 39.9622 87.975 40.1595 87.1003 40.5542C86.2363 40.9489 85.5377 41.3542 85.0043 41.7702C84.6737 42.0155 84.5083 42.2235 84.5083 42.3942C84.5083 42.4795 84.5563 42.5809 84.6523 42.6982C84.759 42.8049 84.903 42.9382 85.0843 43.0982C85.3723 43.3435 85.751 43.7222 86.2203 44.2342C86.9243 45.0235 87.2763 45.8609 87.2763 46.7462C87.2763 47.7275 86.9083 48.5915 86.1723 49.3382C85.2123 50.3089 84.0603 50.7942 82.7163 50.7942C81.8203 50.7942 81.1003 50.5649 80.5563 50.1062C80.0123 49.6369 79.6177 49.0289 79.3723 48.2822C79.127 47.5355 79.0043 46.7515 79.0043 45.9302C79.0043 45.0449 79.1217 44.1915 79.3563 43.3702C79.591 42.5382 79.911 41.8555 80.3163 41.3222C80.7217 40.7889 81.1697 40.5222 81.6603 40.5222C81.799 40.5222 81.9377 40.5435 82.0763 40.5862H82.0923C82.2097 40.5862 82.4923 40.4155 82.9403 40.0742C83.3457 39.7649 83.863 39.4129 84.4923 39.0182C85.1323 38.6129 85.847 38.2609 86.6363 37.9622C87.4363 37.6529 88.279 37.4982 89.1643 37.4982C89.463 37.4982 89.767 37.5195 90.0763 37.5622C90.8123 37.6902 91.3457 37.9355 91.6763 38.2982C92.0177 38.6502 92.2363 39.0502 92.3323 39.4982C92.439 39.9462 92.4977 40.3729 92.5083 40.7782C92.5297 41.0875 92.5617 41.3435 92.6043 41.5462C92.6577 41.7489 92.759 41.8662 92.9083 41.8982C93.6977 42.0369 94.455 42.3195 95.1803 42.7462C95.9057 43.1729 96.5083 43.7115 96.9883 44.3622C97.4683 45.0022 97.7083 45.7062 97.7083 46.4742C97.7083 46.8262 97.6497 47.1835 97.5323 47.5462C97.095 48.7515 96.407 49.7115 95.4683 50.4262C94.5297 51.1515 93.5697 51.5142 92.5883 51.5142ZM83.0843 47.8182C83.3937 47.8182 83.6763 47.6955 83.9323 47.4502C84.199 47.1942 84.3323 46.9169 84.3323 46.6182C84.3323 46.4902 84.3003 46.3622 84.2363 46.2342C84.119 46.0529 83.8097 45.6955 83.3083 45.1622C82.7003 44.5222 82.295 44.2022 82.0923 44.2022C81.943 44.2022 81.8683 44.6395 81.8683 45.5142C81.8683 46.3782 81.991 46.9809 82.2363 47.3222C82.4923 47.6529 82.775 47.8182 83.0843 47.8182ZM92.8603 48.5702C93.2657 48.5702 93.6763 48.3355 94.0923 47.8662C94.5083 47.3862 94.7163 46.9169 94.7163 46.4582C94.7163 46.2022 94.631 45.9782 94.4603 45.7862C93.8737 45.1569 93.1323 44.6929 92.2363 44.3942C92.0443 45.3755 91.9483 46.1702 91.9483 46.7782C91.9483 47.4395 92.039 47.9035 92.2203 48.1702C92.4017 48.4369 92.615 48.5702 92.8603 48.5702ZM108.404 51.3382C108.052 51.3382 107.732 51.1835 107.444 50.8742C107.199 50.5542 107.028 50.2129 106.932 49.8502C106.847 49.4769 106.788 49.0769 106.756 48.6502C106.724 48.2129 106.655 47.7435 106.548 47.2422C106.41 47.2635 106.266 47.4182 106.116 47.7062C105.988 48.0369 105.626 48.5702 105.028 49.3062C104.026 50.4475 103.018 51.0182 102.004 51.0182C101.13 51.0182 100.399 50.6449 99.8123 49.8982C99.2256 49.1409 98.9323 48.2555 98.9323 47.2422C98.9323 46.6022 99.0709 45.9515 99.3483 45.2902C99.9563 43.8395 101.22 42.7089 103.14 41.8982C103.855 41.6209 104.458 41.4822 104.948 41.4822C105.012 41.4822 105.071 41.4875 105.124 41.4982H105.268C105.407 41.4982 105.514 41.4662 105.588 41.4022C105.663 41.3275 105.722 41.1675 105.764 40.9222C105.818 40.6662 105.876 40.2715 105.94 39.7382C106.004 39.2049 106.106 38.4849 106.244 37.5782C106.33 37.0769 106.495 36.7089 106.74 36.4742C106.996 36.2289 107.279 36.1062 107.588 36.1062C107.866 36.1062 108.132 36.1969 108.388 36.3782C108.815 36.7409 109.076 37.5355 109.172 38.7622C109.247 39.7649 109.284 40.9009 109.284 42.1702V43.0342C109.284 44.1755 109.3 45.3169 109.332 46.4582C109.375 47.5995 109.471 48.6662 109.62 49.6582C109.642 49.7755 109.652 49.8875 109.652 49.9942C109.652 50.4315 109.524 50.7622 109.268 50.9862C109.012 51.2209 108.724 51.3382 108.404 51.3382ZM102.1 48.4102C102.655 48.4102 103.3 47.7382 104.036 46.3942C104.303 45.9035 104.543 45.4129 104.756 44.9222C104.97 44.4209 105.076 44.0475 105.076 43.8022C105.076 43.6529 105.023 43.5782 104.916 43.5782L104.804 43.5942C104.004 43.9142 103.359 44.3035 102.868 44.7622C102.388 45.2209 102.036 45.6955 101.812 46.1862C101.599 46.6769 101.492 47.1089 101.492 47.4822C101.492 47.7595 101.546 47.9835 101.652 48.1542C101.759 48.3249 101.908 48.4102 102.1 48.4102ZM115.531 51.5782C114.838 51.5782 114.384 50.9169 114.171 49.5942C114.022 48.7195 113.942 47.3915 113.931 45.6102C113.931 44.6502 113.899 43.8342 113.835 43.1622C113.782 42.4902 113.622 42.1542 113.355 42.1542C112.8 42.1969 112.32 42.2769 111.915 42.3942C111.584 42.5009 111.291 42.5542 111.035 42.5542C110.822 42.5542 110.635 42.5009 110.475 42.3942C110.315 42.2769 110.166 42.0689 110.027 41.7702C109.931 41.5569 109.883 41.3649 109.883 41.1942C109.883 40.7569 110.15 40.4262 110.683 40.2022C111.206 39.9782 111.883 39.8182 112.715 39.7222C113.547 39.6155 114.448 39.5302 115.419 39.4662C116.902 39.3809 118.272 39.2209 119.531 38.9862C119.648 38.9649 119.766 38.9542 119.883 38.9542C120.246 38.9542 120.539 39.0609 120.763 39.2742C120.998 39.4769 121.115 39.7115 121.115 39.9782C121.115 40.2555 120.971 40.5275 120.683 40.7942C120.406 41.0502 119.936 41.2422 119.275 41.3702C118.486 41.5089 117.862 41.5942 117.403 41.6262C116.955 41.6582 116.646 41.7115 116.475 41.7862C116.304 41.8609 116.219 42.0529 116.219 42.3622C116.219 42.5862 116.246 42.8955 116.299 43.2902C116.406 43.9835 116.486 45.1035 116.539 46.6502C116.56 47.4929 116.592 48.2022 116.635 48.7782C116.678 49.2902 116.699 49.7222 116.699 50.0742C116.699 50.5009 116.646 50.8262 116.539 51.0502C116.432 51.2742 116.23 51.4289 115.931 51.5142C115.792 51.5569 115.659 51.5782 115.531 51.5782ZM122.899 51.2902C122.035 51.2902 121.502 50.9329 121.299 50.2182C121.16 49.7489 121.091 49.2209 121.091 48.6342C121.091 48.1649 121.107 47.6849 121.139 47.1942C121.171 46.7462 121.187 46.3409 121.187 45.9782C121.187 45.5942 121.155 45.2742 121.091 45.0182C120.942 44.4742 120.867 43.9195 120.867 43.3542V42.6182C120.867 42.3302 120.963 42.0795 121.155 41.8662C121.358 41.6529 121.603 41.5462 121.891 41.5462C122.126 41.5462 122.376 41.6422 122.643 41.8342C122.91 42.0155 123.096 42.2609 123.203 42.5702C123.246 42.6982 123.294 42.7622 123.347 42.7622C123.432 42.7622 123.619 42.6502 123.907 42.4262C124.622 41.8822 125.315 41.4929 125.987 41.2582C126.659 41.0235 127.272 40.9062 127.827 40.9062C128.51 40.9062 129.059 41.0502 129.475 41.3382C129.902 41.6155 130.115 41.9569 130.115 42.3622C130.115 42.5115 130.083 42.6662 130.019 42.8262C129.902 43.0929 129.763 43.2742 129.603 43.3702C129.443 43.4662 129.267 43.5142 129.075 43.5142C128.915 43.5142 128.739 43.4982 128.547 43.4662C128.355 43.4235 128.158 43.4022 127.955 43.4022C127.774 43.4022 127.587 43.4342 127.395 43.4982C126.35 43.9142 125.587 44.4422 125.107 45.0822C124.638 45.7222 124.334 46.3995 124.195 47.1142C124.067 47.8182 123.998 48.4849 123.987 49.1142C123.966 49.5302 123.928 49.9035 123.875 50.2342C123.832 50.5649 123.736 50.8209 123.587 51.0022C123.448 51.1942 123.219 51.2902 122.899 51.2902ZM134.347 51.2262C133.557 51.2262 132.907 51.0075 132.395 50.5702C131.883 50.1435 131.499 49.5782 131.243 48.8742C130.997 48.1702 130.875 47.4182 130.875 46.6182C130.875 45.4235 131.136 44.2715 131.659 43.1622C132.192 42.0529 132.971 41.2635 133.995 40.7942C134.315 40.6662 134.587 40.6022 134.811 40.6022C135.067 40.6022 135.275 40.6555 135.435 40.7622C135.605 40.8582 135.76 40.9649 135.899 41.0822C136.08 41.2529 136.267 41.3649 136.459 41.4182C137.333 41.6422 137.995 42.2182 138.443 43.1462C138.891 44.0742 139.131 45.0342 139.163 46.0262C138.949 47.6582 138.379 48.9115 137.451 49.7862C136.448 50.7462 135.413 51.2262 134.347 51.2262ZM134.379 48.2822C134.485 48.2822 134.603 48.2502 134.731 48.1862C135.125 47.9622 135.44 47.6315 135.675 47.1942C135.92 46.7462 136.043 46.2822 136.043 45.8022L136.027 45.4822C135.973 45.0235 135.845 44.6129 135.643 44.2502C135.451 43.8875 135.125 43.4609 134.667 42.9702C134.325 43.2049 134.059 43.6582 133.867 44.3302C133.685 45.0022 133.595 45.6795 133.595 46.3622C133.595 46.8849 133.653 47.3382 133.771 47.7222C133.899 48.0955 134.101 48.2822 134.379 48.2822ZM144.645 52.6022C143.866 52.6022 143.2 52.0209 142.645 50.8582C142.282 50.0795 141.888 48.9009 141.461 47.3222C141.248 46.4689 141.029 45.7435 140.805 45.1462C140.549 44.4422 140.421 43.8769 140.421 43.4502C140.421 43.0235 140.517 42.7142 140.709 42.5222C140.901 42.3302 141.125 42.2342 141.381 42.2342C141.648 42.2342 141.914 42.3249 142.181 42.5062C142.448 42.6875 142.645 42.9275 142.773 43.2262C143.349 44.7089 143.77 45.9302 144.037 46.8902C144.197 47.4342 144.33 47.8609 144.437 48.1702C144.554 48.4689 144.677 48.6182 144.805 48.6182C144.986 48.6182 145.232 48.2182 145.541 47.4182C145.786 46.8102 146.309 45.3382 147.109 43.0022C147.333 42.3942 147.594 41.9569 147.893 41.6902C148.192 41.4129 148.485 41.2742 148.773 41.2742C149.061 41.2742 149.306 41.3915 149.509 41.6262C149.712 41.8502 149.813 42.1542 149.813 42.5382C149.813 42.7195 149.781 42.9169 149.717 43.1302C149.333 44.4849 148.917 45.8182 148.469 47.1302C148.032 48.4315 147.562 49.5569 147.061 50.5062C146.57 51.4662 146.058 52.0902 145.525 52.3782C145.205 52.5275 144.912 52.6022 144.645 52.6022ZM156.421 51.3542H155.973C154.747 51.3542 153.749 51.1142 152.981 50.6342C152.224 50.1542 151.664 49.5302 151.301 48.7622C150.949 47.9835 150.773 47.1515 150.773 46.2662C150.773 45.4769 150.901 44.6875 151.157 43.8982C151.424 43.1089 151.792 42.3942 152.261 41.7542C152.741 41.1035 153.312 40.5862 153.973 40.2022C154.645 39.8075 155.387 39.6102 156.197 39.6102C156.443 39.6102 156.699 39.6315 156.965 39.6742C157.925 39.8449 158.613 40.1969 159.029 40.7302C159.456 41.2529 159.669 41.8342 159.669 42.4742C159.669 43.0929 159.509 43.7009 159.189 44.2982C158.869 44.8955 158.437 45.3915 157.893 45.7862C157.349 46.1809 156.741 46.3782 156.069 46.3782C155.525 46.3782 154.955 46.2129 154.357 45.8822C154.315 45.8609 154.267 45.8342 154.213 45.8022C154.171 45.7702 154.123 45.7435 154.069 45.7222C154.027 45.6902 153.984 45.6742 153.941 45.6742C153.856 45.6742 153.813 45.8395 153.813 46.1702C153.813 46.8209 154.059 47.3595 154.549 47.7862C155.051 48.2129 155.675 48.4262 156.421 48.4262C157.157 48.4262 157.899 48.2129 158.645 47.7862C158.827 47.6902 159.003 47.6049 159.173 47.5302C159.355 47.4555 159.563 47.4182 159.797 47.4182L160.005 47.4342C160.4 47.4769 160.693 47.5942 160.885 47.7862C161.077 47.9675 161.173 48.1862 161.173 48.4422C161.173 48.8262 160.976 49.2475 160.581 49.7062C160.197 50.1649 159.648 50.5542 158.933 50.8742C158.219 51.1942 157.381 51.3542 156.421 51.3542ZM156.037 44.1222C156.101 44.1222 156.187 44.0955 156.293 44.0422C156.613 43.8822 156.848 43.6955 156.997 43.4822C157.147 43.2689 157.221 43.0609 157.221 42.8582C157.221 42.6555 157.157 42.4849 157.029 42.3462C156.901 42.1969 156.715 42.1222 156.469 42.1222C156.107 42.1222 155.712 42.2929 155.285 42.6342C154.869 42.9755 154.661 43.2369 154.661 43.4182C154.661 43.5035 154.72 43.5515 154.837 43.5622C155.2 43.5942 155.488 43.7169 155.701 43.9302C155.819 44.0582 155.931 44.1222 156.037 44.1222Z" fill="black"/>
<path d="M53.4417 57.6222C45.4962 63.0344 34.6291 60.9727 29.2175 53.0282C23.8059 45.0838 25.8659 34.2163 33.8114 28.804C41.7569 23.3917 52.624 25.4535 58.0356 33.398C63.4472 41.3424 61.3862 52.2106 53.4417 57.6222ZM34.52 29.8442C27.1484 34.8656 25.2374 44.9474 30.2587 52.3189C35.2801 59.6905 45.3626 61.6026 52.7331 56.582C60.1037 51.5613 62.0168 41.4781 56.9954 34.1065C51.9741 26.7349 41.8916 24.8229 34.52 29.8442Z" fill="#CDCDCD"/>
<path d="M55.8976 31.5744L55.3728 31.5748C54.8837 31.5749 54.4453 31.5194 54.1108 31.4577C54.1579 31.1195 54.2927 30.5311 54.3988 30.1317L54.5334 29.6245L54.0232 29.7455C53.4381 29.8844 52.9044 29.9224 52.5791 29.9294L52.5702 29.901C52.5022 29.6953 52.4746 28.8619 52.4755 28.3346L52.4768 27.8101L52.0132 28.0569C51.628 28.2623 51.2549 28.4084 50.9594 28.5076C51.0006 28.079 51.065 27.6405 51.067 27.6347L51.144 27.1156L50.6509 27.2925C50.0456 27.5097 49.4877 27.6047 49.1669 27.6447C49.0867 27.1637 49.0326 26.5269 49.0322 26.5197L48.9867 25.997L48.5469 26.2831C48.264 26.4668 47.9859 26.6157 47.7397 26.7324C47.9284 25.7847 47.9993 25.0672 47.9537 24.5972C47.828 23.3115 47.7156 20.3513 47.6981 19.8741C47.7146 19.6934 47.6667 19.3479 47.1499 19.0517C46.8417 18.8746 46.4292 18.7535 45.9865 18.7115C45.3634 18.6514 44.7849 18.7558 44.4395 18.9911C44.2878 19.0944 44.1811 19.2241 44.1269 19.3691C43.9335 19.6403 43.5796 20.2925 43.7141 21.2917C43.7775 21.7571 43.9078 22.2699 44.0457 22.8137C44.2587 23.6528 44.4796 24.5211 44.4293 25.172C44.3985 25.5651 44.2344 26.247 43.9504 27.1561C43.7048 26.9408 43.2638 26.4565 42.9785 26.1213L42.6374 25.7219L42.4466 26.2105C42.2571 26.6967 42.027 27.1055 41.8469 27.3917C41.4913 27.0878 41.1002 26.7075 41.0957 26.7031L40.7199 26.3364L40.5743 26.8407C40.4463 27.2849 40.2817 27.6732 40.1364 27.9687C39.7722 27.7997 39.2329 27.4903 39.0122 27.3601L38.5607 27.0916L38.537 27.6163C38.5167 28.0622 38.4513 28.4639 38.3822 28.781C37.9323 28.6359 37.4105 28.4272 37.4046 28.4252L36.9178 28.2302L36.9759 28.7517C37.0359 29.287 37.0201 29.7703 36.9936 30.1035C36.6604 30.0814 36.0361 29.9755 35.6167 29.8906L35.1029 29.786L35.253 30.2884C35.4056 30.7966 35.4767 31.2688 35.5089 31.5979C35.1856 31.6321 34.5255 31.6256 34.0837 31.607L33.5597 31.5844L33.7877 32.0577C34.0388 32.5783 34.1892 33.0745 34.2691 33.3967C33.922 33.4201 33.3513 33.4127 32.9563 33.3967L32.4323 33.3741L32.6605 33.8457C32.9468 34.44 33.1006 34.9939 33.1711 35.3044C32.8454 35.3792 32.2171 35.4591 31.7893 35.4984L31.2671 35.5466L31.5562 35.9843C31.874 36.464 32.0885 36.9331 32.2122 37.2403C31.9278 37.347 31.2391 37.5011 30.7818 37.5875L30.2662 37.6852L30.5957 38.0939C30.9648 38.5522 31.2235 39.0046 31.375 39.302C31.0526 39.4586 30.477 39.6752 30.1226 39.798L29.627 39.9691L30.0119 40.325C30.3629 40.6486 30.6431 40.9828 30.8386 41.2412C30.4722 41.4038 29.9633 41.5884 29.7484 41.6628L29.2528 41.8338L29.6378 42.1898C30.0738 42.5919 30.4005 43.01 30.5893 43.276C30.1414 43.4731 29.5261 43.6866 29.5186 43.6888L29.023 43.8598L29.4079 44.2157C29.7672 44.5471 30.0509 44.8865 30.2538 45.1579C30.1395 45.2523 29.9477 45.3979 29.6269 45.6164C29.3646 45.7951 29.1444 45.9346 29.1424 45.936L28.6991 46.2169L29.1564 46.4741C29.679 46.7678 30.0964 47.103 30.3418 47.32L30.3296 47.3463C30.2387 47.5432 29.6934 48.1743 29.3354 48.5607L28.9778 48.9453L29.4853 49.0782C29.9078 49.1895 30.28 49.335 30.5654 49.4632C30.2442 49.7495 29.8979 50.0274 29.8935 50.0319L29.4841 50.3603L29.9672 50.5653C30.4784 50.7827 30.8996 51.042 31.1801 51.2335C31.0049 51.5269 30.6479 52.0161 30.3929 52.3444L30.0707 52.7589L30.5885 52.8473C31.0329 52.9227 31.4282 53.0405 31.7261 53.1451C31.6727 53.417 31.4004 54.1186 31.2075 54.5666L31.0001 55.0485L31.5228 55.003C31.9908 54.9633 32.4188 54.9793 32.741 55.0074C32.5827 55.3102 32.2562 55.8177 32.0213 56.1578L31.7233 56.5903L32.2449 56.6491C32.7308 56.7037 33.1607 56.8085 33.4857 56.9067C33.4006 57.2377 33.1999 57.8065 33.05 58.1922L32.8599 58.6818L33.3807 58.6181C33.9763 58.5454 34.511 58.5683 34.8366 58.597L34.8428 58.6259C34.8872 58.8387 34.8216 59.6696 34.7607 60.1926L34.7003 60.7139L35.1884 60.5209C35.5947 60.3597 35.982 60.2564 36.2864 60.1901C36.1977 60.6106 36.0833 61.0396 36.0831 61.0458L35.9485 61.553L36.4587 61.432C37.0005 61.3045 37.4947 61.2635 37.8316 61.2515C37.8635 61.5914 37.8672 62.198 37.8555 62.6126L37.8418 63.1365L38.3103 62.9014C38.8182 62.647 39.3002 62.4912 39.6284 62.4026C39.7475 62.6876 39.9286 63.3609 40.0328 63.8091L40.1518 64.3207L40.5459 63.9742C40.8565 63.7011 41.2181 63.4413 41.5874 63.2212L41.5974 63.2294C41.7639 63.3681 42.2317 64.0592 42.5113 64.5049L42.7891 64.9502L43.0504 64.4947C43.2584 64.1325 43.485 63.8221 43.6718 63.5898L43.6791 63.5938C43.8734 63.6896 44.4874 64.254 44.8625 64.6241L45.2352 64.9929L45.3843 64.4893C45.4615 64.2282 45.5593 63.962 45.6743 63.6991C45.9476 63.792 46.5952 64.137 47.0093 64.3771L47.4638 64.6391L47.4803 64.1148C47.4843 63.9665 47.4952 63.8151 47.5101 63.6609C47.8307 63.8011 48.313 64.0532 48.6461 64.2404L49.1033 64.4976L49.1136 63.973C49.1219 63.5667 49.1694 63.1937 49.2218 62.8985C49.4666 62.9583 50.1758 63.3034 50.6225 63.5407L51.0855 63.7865L51.0841 63.2623C51.0831 62.8159 51.1299 62.409 51.1801 62.1017C51.5654 62.2818 51.9465 62.4844 51.9513 62.4871L52.415 62.7339L52.4135 62.2097C52.4121 61.6526 52.4829 61.1618 52.55 60.8264C52.9481 60.8778 53.5641 61.0134 53.8144 61.0725L54.3242 61.1933L54.1902 60.6859C54.0662 60.2153 54.0092 59.777 53.9836 59.4553C54.3846 59.4823 54.9239 59.556 55.1478 59.5895L55.6665 59.6683L55.4917 59.1737C55.4262 58.9873 55.3665 58.7939 55.316 58.5942L55.4391 58.6274L55.3216 58.1178C55.318 58.1038 55.3151 58.0907 55.3125 58.076C55.7906 58.1104 56.3865 58.1966 56.3934 58.1979L56.9128 58.2732L56.7342 57.7798C56.5587 57.2931 56.461 56.8391 56.4088 56.507C56.5766 56.5023 56.6894 56.5004 56.6911 56.5008L57.2152 56.4948L57.2061 56.4771C57.4183 56.5066 57.5715 56.5312 57.5733 56.5315L58.0921 56.6147L57.921 56.1191C57.7135 55.5193 57.6251 54.9689 57.5877 54.6387C57.8138 54.5477 58.6054 54.4256 59.1118 54.3673L59.6329 54.3064L59.3335 53.8757C58.9455 53.3193 58.701 52.7731 58.5856 52.4826C58.9457 52.3064 59.5367 52.0793 59.7831 51.9895L60.2759 51.8099L59.8844 51.4599C59.4916 51.1078 59.1842 50.7426 58.9884 50.4859L58.9904 50.4845C59.1208 50.3102 59.7892 49.8113 60.221 49.5113L60.6524 49.2129L60.1857 48.9727C59.8839 48.8182 59.5835 48.6327 59.2922 48.423L59.2138 48.3609C59.1549 48.314 59.097 48.2664 59.0387 48.2161C59.3851 48.0132 60.0185 47.7272 60.2595 47.623L60.7417 47.4146L60.3306 47.0885C59.8792 46.7299 59.5322 46.3526 59.3192 46.0971C59.6806 45.7864 60.1412 45.4426 60.1473 45.4385L60.5682 45.1247L60.0938 44.9018C59.8243 44.7748 59.5562 44.6258 59.2939 44.4565C59.476 44.1644 59.8317 43.691 60.0854 43.3741L60.4139 42.9643L59.8985 42.8683C59.4795 42.7907 59.1041 42.6758 58.8156 42.5738C59.13 42.2425 59.5042 41.8931 59.5096 41.8879L59.8927 41.5295L59.3964 41.3604C58.8708 41.1813 58.4311 40.9542 58.1377 40.7835C58.2901 40.4786 58.611 39.9629 58.8407 39.6174L59.1315 39.1808L58.6099 39.131C58.1892 39.0905 57.8088 39.0121 57.5036 38.9319C57.6987 38.6699 58.1438 38.1912 58.4537 37.8796L58.8242 37.5072L58.3216 37.3574C57.7962 37.2007 57.3511 36.9922 57.0583 36.8376C57.1663 36.5315 57.4562 35.9395 57.6634 35.5477L57.9092 35.0848L57.384 35.0869C56.9651 35.0887 56.582 35.0481 56.2854 35.0026C56.304 34.7348 56.4999 33.9937 56.6431 33.5211L56.7946 33.0189L56.2797 33.122C55.8438 33.2089 55.4393 33.2429 55.1154 33.2519L55.1973 32.9801L55.1853 32.9823C55.3226 32.6772 55.5104 32.3032 55.6569 32.0294L55.9044 31.5667L55.8976 31.5744Z" fill="#CBCBCB"/>
<path d="M42.7238 17.1569C42.7238 17.1569 42.106 17.7983 42.2694 19.0118C42.4329 20.2253 43.0973 21.9077 43.0075 23.0731C42.9176 24.2386 41.8439 27.1049 41.8439 27.1049L43.1794 29.0654L44.9937 27.6585C44.9937 27.6585 46.1327 23.963 45.988 22.4907C45.8433 21.0184 45.7198 17.4957 45.7198 17.4957L42.7238 17.1569Z" fill="#433709"/>
<path d="M43.9039 17.2951C43.9308 17.9998 44.266 20.9103 44.3926 22.1953C44.5373 23.6676 43.3983 27.3632 43.3983 27.3632L42.1993 28.0524L42.8688 29.0352L44.6831 27.6283C44.6831 27.6283 45.8221 23.9327 45.6774 22.4604C45.5328 20.9881 45.4092 17.4654 45.4092 17.4654L43.9056 17.2954L43.9039 17.2951Z" fill="#261C02"/>
<path d="M45.7267 17.5693C45.6896 17.9531 44.9709 18.1997 44.1226 18.1173C43.2733 18.0357 42.6161 17.6567 42.6525 17.2718C42.6896 16.888 43.4083 16.6414 44.2566 16.7238C45.1059 16.8054 45.7631 17.1844 45.7267 17.5693Z" fill="#FCD3B3"/>
<path d="M42.1407 25.5816C42.1407 25.5816 36.2753 25.6161 31.8198 33.4492C27.3652 41.2816 28.0881 47.8559 31.1323 53.5121C34.1754 59.169 37.6639 61.9224 43.0562 62.3212C48.4476 62.7207 57.1878 54.3695 57.1786 48.5919C57.1671 41.161 55.1529 34.4267 53.057 31.2903C50.961 28.1539 48.0404 26.6791 46.5333 26.0853C45.0278 25.4919 43.4124 25.3935 43.4124 25.3935L42.1417 25.5809L42.1407 25.5816Z" fill="#4B5B19"/>
<path d="M39.0295 24.8551C39.0295 24.8551 39.9996 25.8012 40.3379 25.9653L40.6752 26.1302L40.0144 27.422C40.0144 27.422 39.1017 26.6019 39.1165 26.5753C39.1314 26.5486 39.0285 24.8558 39.0285 24.8558L39.0295 24.8551Z" fill="#6B7B3E"/>
<path d="M39.0304 24.8552C38.7305 25.8952 38.2438 26.6453 38.2438 26.6453L40.0159 27.4232L39.0311 24.8562L39.0304 24.8552Z" fill="#4B5B19"/>
<path d="M36.9479 25.5769C36.9479 25.5769 38.1121 26.2707 38.4796 26.352L38.847 26.4333L38.5054 27.8437C38.5054 27.8437 37.4269 27.2581 37.4352 27.2284C37.4435 27.1988 36.9489 25.5762 36.9489 25.5762L36.9479 25.5769Z" fill="#6B7B3E"/>
<path d="M36.9488 25.577C36.8991 26.6581 36.6018 27.5013 36.6018 27.5013L38.5064 27.8438L36.9488 25.577Z" fill="#4B5B19"/>
<path d="M35.3417 26.6936C35.3417 26.6936 36.601 27.1966 36.9751 27.2193L37.3509 27.2424L37.2346 28.6884C37.2346 28.6884 36.078 28.279 36.0812 28.2484C36.0843 28.2177 35.3427 26.6929 35.3427 26.6929L35.3417 26.6936Z" fill="#6B7B3E"/>
<path d="M35.3411 26.6935C35.4619 27.7695 35.2987 28.6489 35.2987 28.6489L37.233 28.6891L35.3401 26.6942L35.3411 26.6935Z" fill="#4B5B19"/>
<path d="M30.8711 31.8298C30.8711 31.8298 32.2257 31.8868 32.5869 31.7848L32.949 31.6822L33.3194 33.0848C33.3194 33.0848 32.0918 33.0823 32.085 33.0524C32.0782 33.0226 30.8728 31.8302 30.8728 31.8302L30.8711 31.8298Z" fill="#6B7B3E"/>
<path d="M30.8707 31.8297C31.341 32.8042 31.4795 33.6881 31.4795 33.6881L33.3183 33.0837L30.8718 31.829L30.8707 31.8297Z" fill="#4B5B19"/>
<path d="M32.0312 29.9893C32.0312 29.9893 33.3859 30.0463 33.747 29.9443L34.1092 29.8416L34.4795 31.2443C34.4795 31.2443 33.252 31.2417 33.2452 31.2119C33.2383 31.182 32.033 29.9896 32.033 29.9896L32.0312 29.9893Z" fill="#6B7B3E"/>
<path d="M32.0309 29.9892C32.5012 30.9636 32.6396 31.8475 32.6396 31.8475L34.4785 31.2431L32.0319 29.9885L32.0309 29.9892Z" fill="#4B5B19"/>
<path d="M33.5566 28.2178C33.5566 28.2178 34.8852 28.4876 35.2586 28.4433L35.632 28.399L35.7768 29.8427C35.7768 29.8427 34.5645 29.6467 34.5632 29.6161C34.5618 29.5855 33.5584 28.2181 33.5584 28.2181L33.5566 28.2178Z" fill="#6B7B3E"/>
<path d="M33.5559 28.2177C33.8671 29.2539 33.8634 30.1492 33.8634 30.1492L35.7743 29.8423L33.5559 28.2177Z" fill="#4B5B19"/>
<path d="M40.9484 24.2352C40.9484 24.2352 41.8282 25.2668 42.1493 25.4607L42.4711 25.6556L41.6943 26.8809C41.6943 26.8809 40.8613 25.9795 40.8785 25.9542C40.8958 25.9289 40.9487 24.2335 40.9487 24.2335L40.9484 24.2352Z" fill="#6B7B3E"/>
<path d="M40.9476 24.2352C40.5539 25.243 39.9996 25.9447 39.9996 25.9447L41.6924 26.8815L40.9469 24.2341L40.9476 24.2352Z" fill="#4B5B19"/>
<path d="M27.6895 40.3184C27.6895 40.3184 28.9703 39.875 29.2686 39.6478L29.568 39.4198L30.4261 40.5892C30.4261 40.5892 29.2828 41.0364 29.2661 41.0118C29.2493 40.9872 27.6895 40.3184 27.6895 40.3184Z" fill="#6B7B3E"/>
<path d="M27.6895 40.3184C28.4837 41.0526 28.9361 41.8247 28.9361 41.8247L30.4261 40.5892L27.6895 40.3184Z" fill="#4B5B19"/>
<path d="M28.0742 38.3997C28.0742 38.3997 29.3551 37.9563 29.6534 37.729L29.9528 37.5011L30.8108 38.6705C30.8108 38.6705 29.6676 39.1177 29.6508 39.0931C29.6341 39.0685 28.0742 38.3997 28.0742 38.3997Z" fill="#6B7B3E"/>
<path d="M28.0742 38.3997C28.8685 39.1339 29.3209 39.906 29.3209 39.906L30.8108 38.6705L28.0742 38.3997Z" fill="#4B5B19"/>
<path d="M28.7081 36.1377C28.7081 36.1377 30.0407 35.8871 30.3687 35.7057L30.6978 35.5236L31.3754 36.8069C31.3754 36.8069 30.1792 37.0816 30.1655 37.0549C30.1529 37.0275 28.707 36.1384 28.707 36.1384L28.7081 36.1377Z" fill="#6B7B3E"/>
<path d="M28.7072 36.1376C29.3863 36.9804 29.7206 37.8104 29.7206 37.8104L31.3745 36.8068L28.7072 36.1376Z" fill="#4B5B19"/>
<path d="M29.7148 33.9922C29.7148 33.9922 31.0649 33.8662 31.4084 33.7163L31.7529 33.5657L32.309 34.9063C32.309 34.9063 31.092 35.0691 31.0814 35.0403C31.0708 35.0115 29.7148 33.9922 29.7148 33.9922Z" fill="#6B7B3E"/>
<path d="M29.7142 33.9923C30.3114 34.8953 30.5675 35.7516 30.5675 35.7516L32.3077 34.9053L29.7142 33.9923Z" fill="#4B5B19"/>
<path d="M27.4512 42.4036C27.4512 42.4036 28.732 41.9602 29.0304 41.733L29.3297 41.505L30.1878 42.6744C30.1878 42.6744 29.0446 43.1216 29.0278 43.097C29.0111 43.0724 27.4512 42.4036 27.4512 42.4036Z" fill="#6B7B3E"/>
<path d="M27.4512 42.4036C28.2454 43.1378 28.6978 43.9099 28.6978 43.9099L30.1878 42.6744L27.4512 42.4036Z" fill="#4B5B19"/>
<path d="M27.1327 44.6839C27.1327 44.6839 28.2763 43.9574 28.5145 43.6661L28.7527 43.3749L29.8578 44.3145C29.8578 44.3145 28.8488 45.0138 28.8259 44.9933C28.803 44.9729 27.132 44.6828 27.132 44.6828L27.1327 44.6839Z" fill="#6B7B3E"/>
<path d="M27.1328 44.6838C28.0753 45.2151 28.6943 45.8617 28.6943 45.8617L29.8586 44.3154L27.1338 44.6831L27.1328 44.6838Z" fill="#4B5B19"/>
<path d="M27.3933 47.3315C27.3933 47.3315 28.3168 46.3393 28.4727 45.9976L28.6302 45.6562L29.9369 46.286C29.9369 46.286 29.1373 47.2178 29.1106 47.2029C29.083 47.1887 27.3933 47.3315 27.3933 47.3315Z" fill="#6B7B3E"/>
<path d="M27.3926 47.3315C28.4388 47.6076 29.2005 48.076 29.2005 48.076L29.9362 46.2861L27.3926 47.3315Z" fill="#4B5B19"/>
<path d="M27.9334 48.877C27.9334 48.877 28.9904 48.028 29.1947 47.7133L29.3989 47.3987L30.6005 48.2111C30.6005 48.2111 29.6747 49.0172 29.6505 48.9992C29.6262 48.9812 27.9324 48.8777 27.9324 48.8777L27.9334 48.877Z" fill="#6B7B3E"/>
<path d="M27.9327 48.877C28.9285 49.3014 29.6138 49.8759 29.6138 49.8759L30.5998 48.211L27.9316 48.8777L27.9327 48.877Z" fill="#4B5B19"/>
<path d="M28.5014 51.2029C28.5014 51.2029 29.3333 50.1335 29.4595 49.7791L29.5856 49.4246L30.943 49.9373C30.943 49.9373 30.229 50.9353 30.2 50.9235C30.172 50.9111 28.5007 51.2019 28.5007 51.2019L28.5014 51.2029Z" fill="#6B7B3E"/>
<path d="M28.501 51.2029C29.5677 51.3856 30.3672 51.7862 30.3672 51.7862L30.9424 49.939L28.5 51.2036L28.501 51.2029Z" fill="#4B5B19"/>
<path d="M29.3805 53.418C29.3805 53.418 29.9156 52.1728 29.9483 51.7979L29.981 51.423L31.4236 51.5761C31.4236 51.5761 30.9848 52.7227 30.9545 52.7178C30.9242 52.713 29.3808 53.4162 29.3808 53.4162L29.3805 53.418Z" fill="#6B7B3E"/>
<path d="M29.3813 53.418C30.46 53.3254 31.3344 53.51 31.3344 53.51L31.4234 51.5769L29.3806 53.417L29.3813 53.418Z" fill="#4B5B19"/>
<path d="M30.1855 55.1121C30.1855 55.1121 30.954 53.9959 31.0598 53.6358L31.1656 53.2757L32.5505 53.7097C32.5505 53.7097 31.895 54.7473 31.8656 54.7373C31.8363 54.7273 30.1851 55.1138 30.1851 55.1138L30.1855 55.1121Z" fill="#6B7B3E"/>
<path d="M30.1855 55.1121C31.2612 55.2331 32.0822 55.586 32.0822 55.586L32.5498 53.7086L30.1855 55.1121Z" fill="#4B5B19"/>
<path d="M31.2803 57.1383C31.2803 57.1383 31.7716 55.875 31.7909 55.5003L31.8102 55.1255L33.2571 55.2277C33.2571 55.2277 32.8584 56.389 32.8287 56.3852C32.7981 56.382 31.2803 57.1383 31.2803 57.1383Z" fill="#6B7B3E"/>
<path d="M31.2801 57.1383C32.3542 57.0082 33.2352 57.1628 33.2352 57.1628L33.2568 55.2276L31.2801 57.1383Z" fill="#4B5B19"/>
<path d="M33.06 59.1153C33.06 59.1153 33.2155 57.7686 33.1389 57.4007L33.0623 57.0328L34.489 56.7661C34.489 56.7661 34.397 57.99 34.3668 57.9941C34.3366 57.9982 33.0593 59.1143 33.0593 59.1143L33.06 59.1153Z" fill="#6B7B3E"/>
<path d="M33.0601 59.1153C34.0673 58.7173 34.9576 58.6434 34.9576 58.6434L34.4891 56.7661L33.0601 59.1153Z" fill="#4B5B19"/>
<path d="M34.411 60.0401C34.411 60.0401 34.7594 58.73 34.7367 58.3554L34.7151 57.98L36.1656 57.9222C36.1656 57.9222 35.8982 59.12 35.867 59.1203C35.8367 59.1199 34.411 60.0401 34.411 60.0401Z" fill="#6B7B3E"/>
<path d="M34.4105 60.04C35.4642 59.7918 36.3559 59.8476 36.3559 59.8476L36.1634 57.9218L34.4098 60.039L34.4105 60.04Z" fill="#4B5B19"/>
<path d="M36.2447 61.5785C36.2447 61.5785 36.282 60.2237 36.1736 59.864L36.0651 59.5043L37.4627 59.1134C37.4627 59.1134 37.478 60.3407 37.4489 60.3486C37.419 60.3554 36.2454 61.5795 36.2454 61.5795L36.2447 61.5785Z" fill="#6B7B3E"/>
<path d="M36.244 61.5785C37.2115 61.0936 38.0925 60.9421 38.0925 60.9421L37.4614 59.1124L36.244 61.5785Z" fill="#4B5B19"/>
<path d="M56.8813 35.9048C56.8813 35.9048 55.9262 36.866 55.7579 37.2027L55.5907 37.5386L54.3056 36.8656C54.3056 36.8656 55.1357 35.9611 55.1613 35.9766C55.188 35.9915 56.8813 35.9048 56.8813 35.9048Z" fill="#6B7B3E"/>
<path d="M56.8817 35.9047C55.8444 35.5955 55.0994 35.1008 55.0994 35.1008L54.306 36.8656L56.8827 35.904L56.8817 35.9047Z" fill="#4B5B19"/>
<path d="M56.0102 33.5816C56.0102 33.5816 55.3752 34.7793 55.3128 35.1504L55.2498 35.5204L53.8249 35.2502C53.8249 35.2502 54.3553 34.1433 54.3852 34.1498C54.4152 34.1564 56.0102 33.5816 56.0102 33.5816Z" fill="#6B7B3E"/>
<path d="M56.0094 33.5817C54.9268 33.587 54.0695 33.3307 54.0695 33.3307L53.8225 35.2499L56.0077 33.5814L56.0094 33.5817Z" fill="#4B5B19"/>
<path d="M54.9368 31.5532C54.9368 31.5532 54.5453 32.8506 54.5545 33.2254L54.5645 33.6012L53.1135 33.6099C53.1135 33.6099 53.4219 32.4216 53.4511 32.4227C53.4814 32.4231 54.9361 31.5522 54.9361 31.5522L54.9368 31.5532Z" fill="#6B7B3E"/>
<path d="M54.9364 31.5532C53.8751 31.766 52.9855 31.6803 52.9855 31.6803L53.1128 33.6116L54.9364 31.5532Z" fill="#4B5B19"/>
<path d="M54.0726 33.3545C54.0726 33.3545 53.6811 34.6519 53.6893 35.0274L53.6992 35.4033L52.2483 35.4119C52.2483 35.4119 52.5566 34.2236 52.5859 34.2247C52.6161 34.2251 54.0709 33.3542 54.0709 33.3542L54.0726 33.3545Z" fill="#6B7B3E"/>
<path d="M54.0731 33.3544C53.0118 33.5672 52.1222 33.4815 52.1222 33.4815L52.2495 35.4128L54.0731 33.3544Z" fill="#4B5B19"/>
<path d="M54.2503 35.1438C54.2503 35.1438 53.8588 36.4412 53.867 36.8167L53.877 37.1926L52.426 37.2012C52.426 37.2012 52.7343 36.0129 52.7636 36.014C52.7939 36.0144 54.2486 35.1435 54.2486 35.1435L54.2503 35.1438Z" fill="#6B7B3E"/>
<path d="M54.2508 35.1437C53.1895 35.3565 52.2999 35.2708 52.2999 35.2708L52.4272 37.2021L54.2508 35.1437Z" fill="#4B5B19"/>
<path d="M54.5784 36.7095C54.5784 36.7095 54.1869 38.0069 54.1951 38.3824L54.2051 38.7582L52.7541 38.7669C52.7541 38.7669 53.0625 37.5786 53.0927 37.579C53.123 37.5794 54.5777 36.7085 54.5777 36.7085L54.5784 36.7095Z" fill="#6B7B3E"/>
<path d="M54.579 36.7094C53.5176 36.9222 52.6281 36.8365 52.6281 36.8365L52.7553 38.7678L54.579 36.7094Z" fill="#4B5B19"/>
<path d="M53.2952 31.5105C53.2952 31.5105 52.9037 32.8079 52.912 33.1834L52.9219 33.5592L51.4709 33.5679C51.4709 33.5679 51.7793 32.3796 51.8096 32.38C51.8398 32.3804 53.2945 31.5095 53.2945 31.5095L53.2952 31.5105Z" fill="#6B7B3E"/>
<path d="M53.2958 31.5104C52.2344 31.7232 51.3449 31.6375 51.3449 31.6375L51.4721 33.5688L53.2958 31.5104Z" fill="#4B5B19"/>
<path d="M52.1488 29.958C52.1488 29.958 51.7572 31.2555 51.7654 31.631L51.7754 32.0068L50.3244 32.0154C50.3244 32.0154 50.6328 30.8271 50.663 30.8275C50.6933 30.8279 52.1481 29.957 52.1481 29.957L52.1488 29.958Z" fill="#6B7B3E"/>
<path d="M52.1493 29.9579C51.088 30.1708 50.1984 30.0851 50.1984 30.0851L50.3257 32.0163L52.1493 29.9579Z" fill="#4B5B19"/>
<path d="M53.947 29.9596C53.947 29.9596 53.3072 31.1547 53.2431 31.5254L53.1784 31.895L51.7538 31.6186C51.7538 31.6186 52.2889 30.5144 52.3189 30.521C52.3489 30.5276 53.947 29.9596 53.947 29.9596Z" fill="#6B7B3E"/>
<path d="M53.9465 29.9596C52.8638 29.9605 52.0082 29.7001 52.0082 29.7001L51.7533 31.6186L53.9465 29.9596Z" fill="#4B5B19"/>
<path d="M52.6331 28.0702C52.6331 28.0702 52.2864 29.3806 52.3091 29.7553L52.3317 30.1299L50.8817 30.1905C50.8817 30.1905 51.1472 28.9923 51.1785 28.992C51.2088 28.9924 52.6331 28.0702 52.6331 28.0702Z" fill="#6B7B3E"/>
<path d="M52.6333 28.0701C51.581 28.3203 50.6882 28.2653 50.6882 28.2653L50.8836 30.1907L52.6333 28.0701Z" fill="#4B5B19"/>
<path d="M50.6407 26.3039C50.6407 26.3039 50.6371 27.6597 50.7541 28.0166L50.8712 28.3734L49.4832 28.7983C49.4832 28.7983 49.4372 27.5723 49.4674 27.5637C49.4966 27.5559 50.6407 26.3039 50.6407 26.3039Z" fill="#6B7B3E"/>
<path d="M50.6409 26.3038C49.6851 26.8124 48.808 26.9852 48.808 26.9852L49.4834 28.7982L50.6409 26.3038Z" fill="#4B5B19"/>
<path d="M49.1965 25.5364C49.1965 25.5364 48.9967 26.8773 49.0612 27.2474L49.1258 27.6175L47.691 27.8372C47.691 27.8372 47.8233 26.6173 47.8536 26.6132C47.8838 26.6091 49.1965 25.5364 49.1965 25.5364Z" fill="#6B7B3E"/>
<path d="M49.1965 25.5363C48.1777 25.9018 47.2843 25.9447 47.2843 25.9447L47.6911 27.8371L49.1965 25.5363Z" fill="#4B5B19"/>
<path d="M47.0975 24.4648C47.0975 24.4648 47.2127 25.8146 47.3603 26.1612L47.5082 26.506L46.1634 27.0515C46.1634 27.0515 46.0106 25.8338 46.0393 25.8232C46.0681 25.8126 47.0975 24.4648 47.0975 24.4648Z" fill="#6B7B3E"/>
<path d="M47.0994 24.4647C46.1921 25.0557 45.3337 25.3043 45.3337 25.3043L46.1663 27.0507L47.1004 24.464L47.0994 24.4647Z" fill="#4B5B19"/>
<path d="M57.7529 52.7703C57.7529 52.7703 56.4066 52.9282 56.066 53.0867L55.7254 53.2453L55.1381 51.9184C55.1381 51.9184 56.3506 51.7271 56.3623 51.7552C56.3739 51.7833 57.7529 52.7703 57.7529 52.7703Z" fill="#6B7B3E"/>
<path d="M57.7535 52.7704C57.1348 51.882 56.8588 51.0318 56.8588 51.0318L55.1387 51.9185L57.7535 52.7704Z" fill="#4B5B19"/>
<path d="M58.3695 50.3411C58.3695 50.3411 57.0955 50.8054 56.8013 51.0388L56.5065 51.2711L55.6289 50.115C55.6289 50.115 56.764 49.6493 56.7818 49.6732C56.7993 49.6989 58.3699 50.3394 58.3699 50.3394L58.3695 50.3411Z" fill="#6B7B3E"/>
<path d="M58.3705 50.3411C57.564 49.6197 57.0993 48.856 57.0993 48.856L55.6305 50.116L58.3705 50.3411Z" fill="#4B5B19"/>
<path d="M58.7469 47.8303C58.7469 47.8303 57.6324 48.6015 57.406 48.9012L57.1796 49.201L56.0384 48.3055C56.0384 48.3055 57.0192 47.5669 57.0421 47.5873C57.066 47.607 58.7469 47.8303 58.7469 47.8303Z" fill="#6B7B3E"/>
<path d="M58.7479 47.8302C57.7848 47.337 57.1416 46.7143 57.1416 46.7143L56.0394 48.3053L58.7479 47.8302Z" fill="#4B5B19"/>
<path d="M58.8454 45.8584C58.8454 45.8584 57.6013 46.3953 57.32 46.6454L57.0388 46.8955L56.0957 45.793C56.0957 45.793 57.2023 45.2612 57.2208 45.2861C57.2396 45.3093 58.844 45.8608 58.844 45.8608L58.8454 45.8584Z" fill="#6B7B3E"/>
<path d="M58.8463 45.8583C57.9994 45.1855 57.4903 44.449 57.4903 44.449L56.097 45.7912L58.8456 45.8573L58.8463 45.8583Z" fill="#4B5B19"/>
<path d="M57.2448 45.3977C57.2448 45.3977 56.0006 45.9346 55.7194 46.1847L55.4392 46.4341L54.4961 45.3315C54.4961 45.3315 55.6027 44.7998 55.6212 44.8247C55.64 44.8479 57.2444 45.3994 57.2444 45.3994L57.2448 45.3977Z" fill="#6B7B3E"/>
<path d="M57.2448 45.3977C56.3971 44.7238 55.8887 43.9883 55.8887 43.9883L54.4954 45.3305L57.2448 45.3977Z" fill="#4B5B19"/>
<path d="M55.9235 43.9853C55.9235 43.9853 54.6794 44.5223 54.3981 44.7723L54.1169 45.0224L53.1738 43.9199C53.1738 43.9199 54.2805 43.3882 54.2989 43.4131C54.3177 43.4363 55.9222 43.9878 55.9222 43.9878L55.9235 43.9853Z" fill="#6B7B3E"/>
<path d="M55.9245 43.9853C55.0775 43.3124 54.5684 42.576 54.5684 42.576L53.1751 43.9182L55.9238 43.9843L55.9245 43.9853Z" fill="#4B5B19"/>
<path d="M57.695 47.1665C57.695 47.1665 56.4508 47.7034 56.1696 47.9535L55.8883 48.2036L54.9453 47.1011C54.9453 47.1011 56.0519 46.5693 56.0704 46.5943C56.0889 46.6192 57.6936 47.1689 57.6936 47.1689L57.695 47.1665Z" fill="#6B7B3E"/>
<path d="M57.6949 47.1664C56.8479 46.4936 56.3398 45.7564 56.3398 45.7564L54.9466 47.0986L57.6952 47.1647L57.6949 47.1664Z" fill="#4B5B19"/>
<path d="M57.1569 49.3188C57.1569 49.3188 55.9127 49.8557 55.6315 50.1058L55.3513 50.3552L54.4082 49.2527C54.4082 49.2527 55.5148 48.7209 55.5333 48.7459C55.5521 48.7691 57.1566 49.3205 57.1566 49.3205L57.1569 49.3188Z" fill="#6B7B3E"/>
<path d="M57.1578 49.3188C56.3102 48.6449 55.8027 47.9088 55.8027 47.9088L54.4095 49.2509L57.1588 49.3181L57.1578 49.3188Z" fill="#4B5B19"/>
<path d="M56.8552 51.3132C56.8552 51.3132 55.611 51.8501 55.3298 52.1002L55.0485 52.3503L54.1055 51.2478C54.1055 51.2478 55.2121 50.716 55.2306 50.741C55.2494 50.7642 56.8538 51.3156 56.8538 51.3156L56.8552 51.3132Z" fill="#6B7B3E"/>
<path d="M56.8551 51.3132C56.0081 50.6403 55.5 49.9031 55.5 49.9031L54.1067 51.2453L56.8554 51.3114L56.8551 51.3132Z" fill="#4B5B19"/>
<path d="M58.6649 43.6491C58.6649 43.6491 57.5779 44.4586 57.3626 44.7658L57.1472 45.073L55.9752 44.218C55.9752 44.218 56.9295 43.445 56.9534 43.4647C56.9766 43.4834 58.6659 43.6484 58.6659 43.6484L58.6649 43.6491Z" fill="#6B7B3E"/>
<path d="M58.6644 43.649C57.6851 43.1894 57.0205 42.5903 57.0205 42.5903L55.9747 44.2179L58.6654 43.6483L58.6644 43.649Z" fill="#4B5B19"/>
<path d="M58.5414 41.5831C58.5414 41.5831 57.6945 42.6416 57.5636 42.9933L57.4326 43.3451L56.0822 42.8141C56.0822 42.8141 56.8104 41.826 56.8384 41.8384C56.8664 41.8509 58.5414 41.5831 58.5414 41.5831Z" fill="#6B7B3E"/>
<path d="M58.5414 41.583C57.4774 41.3865 56.6836 40.9745 56.6836 40.9745L56.0839 42.8144L58.5432 41.5833L58.5414 41.583Z" fill="#4B5B19"/>
<path d="M57.9768 40.0189C57.9768 40.0189 56.9865 40.944 56.8055 41.2729L56.6251 41.6028L55.366 40.8821C55.366 40.8821 56.2285 40.0095 56.2548 40.0261C56.2804 40.0417 57.9768 40.0189 57.9768 40.0189Z" fill="#6B7B3E"/>
<path d="M57.9768 40.019C56.9515 39.6701 56.2258 39.1487 56.2258 39.1487L55.3661 40.8821L57.9768 40.019Z" fill="#4B5B19"/>
<path d="M57.2421 37.742C57.2421 37.742 56.4909 38.8704 56.3927 39.2328L56.2928 39.595L54.9016 39.1848C54.9016 39.1848 55.5395 38.1366 55.5681 38.1456C55.5974 38.1557 57.2421 37.742 57.2421 37.742Z" fill="#6B7B3E"/>
<path d="M57.2419 37.7419C56.1647 37.6385 55.3376 37.2987 55.3376 37.2987L54.9014 39.1847L57.2419 37.7419Z" fill="#4B5B19"/>
<path d="M56.2599 54.9995C56.2599 54.9995 54.922 54.7841 54.5511 54.8432L54.1803 54.9022L53.9771 53.4653C53.9771 53.4653 55.1961 53.6116 55.1984 53.6415C55.2015 53.6725 56.2603 54.9977 56.2603 54.9977L56.2599 54.9995Z" fill="#6B7B3E"/>
<path d="M56.2597 54.9995C55.9066 53.9768 55.8736 53.0825 55.8736 53.0825L53.9766 53.467L56.2597 54.9995Z" fill="#4B5B19"/>
<path d="M56.2164 38.0999C56.2164 38.0999 55.1653 38.9554 54.9625 39.2722L54.7596 39.5889L53.5523 38.7834C53.5523 38.7834 54.4728 37.9718 54.4981 37.9891C54.5233 38.0064 56.2164 38.0999 56.2164 38.0999Z" fill="#6B7B3E"/>
<path d="M56.2175 38.0998C55.2186 37.682 54.5299 37.1114 54.5299 37.1114L53.5544 38.7826L56.2175 38.0998Z" fill="#4B5B19"/>
<path d="M55.6375 35.7776C55.6375 35.7776 54.8117 36.8517 54.688 37.2075L54.5636 37.5623L53.2028 37.0579C53.2028 37.0579 53.9106 36.0552 53.9396 36.0669C53.9679 36.0777 55.6364 35.7783 55.6364 35.7783L55.6375 35.7776Z" fill="#6B7B3E"/>
<path d="M55.6378 35.7776C54.5699 35.6018 53.7677 35.2061 53.7677 35.2061L53.2042 37.0572L55.6378 35.7776Z" fill="#4B5B19"/>
<path d="M55.2963 54.9635C55.2963 54.9635 53.9407 54.9777 53.5856 55.0995L53.2305 55.2214L52.7875 53.8398C52.7875 53.8398 54.013 53.7777 54.0219 53.8061C54.0297 53.8353 55.2974 54.9628 55.2974 54.9628L55.2963 54.9635Z" fill="#6B7B3E"/>
<path d="M55.2967 54.9636C54.7751 54.0151 54.5913 53.1395 54.5913 53.1395L52.7871 53.8389L55.297 54.9619L55.2967 54.9636Z" fill="#4B5B19"/>
<path d="M56.1691 52.6137C56.1691 52.6137 54.8541 52.9408 54.5359 53.141L54.2177 53.3413L53.4679 52.0996C53.4679 52.0996 54.6459 51.7563 54.6606 51.7823C54.6753 51.8083 56.1691 52.6137 56.1691 52.6137Z" fill="#6B7B3E"/>
<path d="M56.1697 52.6136C55.4428 51.8108 55.0626 51.0016 55.0626 51.0016L53.4685 52.0995L56.1697 52.6136Z" fill="#4B5B19"/>
<path d="M56.8089 50.157C56.8089 50.157 55.6185 50.8058 55.3622 51.0794L55.105 51.3537L54.0645 50.3416C54.0645 50.3416 55.1175 49.7113 55.1383 49.7331C55.1592 49.7549 56.8082 50.156 56.8082 50.156L56.8089 50.157Z" fill="#6B7B3E"/>
<path d="M56.8095 50.1571C55.9046 49.5642 55.3306 48.8779 55.3306 48.8779L54.0658 50.3426L56.8095 50.1571Z" fill="#4B5B19"/>
<path d="M57.1503 48.4259C57.1503 48.4259 55.8567 48.8285 55.5503 49.0462L55.2447 49.2649L54.4238 48.0686C54.4238 48.0686 55.5798 47.6578 55.5973 47.6834C55.6147 47.709 57.1503 48.4259 57.1503 48.4259Z" fill="#6B7B3E"/>
<path d="M57.1504 48.426C56.3796 47.6667 55.9522 46.8806 55.9522 46.8806L54.4239 48.0687L57.1504 48.426Z" fill="#4B5B19"/>
<path d="M57.2059 46.2096C57.2059 46.2096 56.0397 46.9005 55.7925 47.183L55.5459 47.4664L54.4707 46.4915C54.4707 46.4915 55.5013 45.8239 55.5232 45.845C55.5451 45.8661 57.2069 46.2089 57.2069 46.2089L57.2059 46.2096Z" fill="#6B7B3E"/>
<path d="M57.2052 46.2096C56.2799 45.6486 55.6824 44.9829 55.6824 44.9829L54.47 46.4914L57.2052 46.2096Z" fill="#4B5B19"/>
<path d="M57.2644 43.9223C57.2644 43.9223 56.31 44.8845 56.1435 45.2215L55.9762 45.5575L54.6898 44.887C54.6898 44.887 55.5175 43.981 55.5441 43.9959C55.5708 44.0108 57.2644 43.9223 57.2644 43.9223Z" fill="#6B7B3E"/>
<path d="M57.2649 43.9223C56.2276 43.6131 55.4811 43.1208 55.4811 43.1208L54.6895 44.8859L57.2649 43.9223Z" fill="#4B5B19"/>
<path d="M56.8713 42.308C56.8713 42.308 55.7878 43.1226 55.5738 43.4318L55.3592 43.74L54.1834 42.8906C54.1834 42.8906 55.1339 42.1141 55.1581 42.1321C55.1824 42.1501 56.8713 42.308 56.8713 42.308Z" fill="#6B7B3E"/>
<path d="M56.8705 42.308C55.8885 41.8531 55.2216 41.2572 55.2216 41.2572L54.1827 42.8906L56.8695 42.3087L56.8705 42.308Z" fill="#4B5B19"/>
<path d="M56.3788 39.9646C56.3788 39.9646 55.5135 41.0071 55.3757 41.3576L55.2388 41.7073L53.8985 41.1515C53.8985 41.1515 54.6447 40.1766 54.6717 40.1897C54.6996 40.2022 56.3795 39.9656 56.3795 39.9656L56.3788 39.9646Z" fill="#6B7B3E"/>
<path d="M56.3783 39.9647C55.3171 39.7483 54.5311 39.3235 54.5311 39.3235L53.898 41.1516L56.3783 39.9647Z" fill="#4B5B19"/>
<path d="M53.5783 57.0219C53.5783 57.0219 52.2706 56.6659 51.8955 56.6858L51.5205 56.7057L51.4706 55.2558C51.4706 55.2558 52.6671 55.53 52.6667 55.5603C52.6664 55.5906 53.5776 57.0208 53.5776 57.0208L53.5783 57.0219Z" fill="#6B7B3E"/>
<path d="M53.5784 57.0219C53.3357 55.9674 53.397 55.075 53.397 55.075L51.4707 55.2559L53.5784 57.0219Z" fill="#4B5B19"/>
<path d="M53.6145 35.0497C53.6145 35.0497 52.6677 36.0187 52.5018 36.3568L52.337 36.6941L51.0462 36.0325C51.0462 36.0325 51.868 35.1201 51.8947 35.135C51.9213 35.1499 53.6138 35.0487 53.6138 35.0487L53.6145 35.0497Z" fill="#6B7B3E"/>
<path d="M53.6144 35.0498C52.5747 34.7482 51.8246 34.2615 51.8246 34.2615L51.0461 36.0326L53.6144 35.0498Z" fill="#4B5B19"/>
<path d="M52.7711 32.8089C52.7711 32.8089 52.0743 33.9707 51.9912 34.3378L51.9092 34.7043L50.5005 34.3586C50.5005 34.3586 51.0903 33.2817 51.1189 33.2907C51.1486 33.299 52.7718 32.8099 52.7718 32.8099L52.7711 32.8089Z" fill="#6B7B3E"/>
<path d="M52.7719 32.8089C51.6914 32.7557 50.8488 32.4549 50.8488 32.4549L50.4995 34.3583L52.7726 32.8099L52.7719 32.8089Z" fill="#4B5B19"/>
<path d="M54.6286 51.9084C54.6286 51.9084 53.2838 52.0772 52.9442 52.2395L52.6057 52.4011L52.0068 51.0792C52.0068 51.0792 53.2178 50.8769 53.2294 50.905C53.2411 50.9331 54.6286 51.9084 54.6286 51.9084Z" fill="#6B7B3E"/>
<path d="M54.6284 51.9084C54.0015 51.0255 53.7189 50.1768 53.7189 50.1768L52.0059 51.0781L54.6277 51.9073L54.6284 51.9084Z" fill="#4B5B19"/>
<path d="M55.2249 49.4753C55.2249 49.4753 53.955 49.9503 53.6623 50.1857L53.3695 50.4211L52.4824 49.2729C52.4824 49.2729 53.6133 48.7967 53.6318 48.8216C53.6493 48.8472 55.2249 49.4753 55.2249 49.4753Z" fill="#6B7B3E"/>
<path d="M55.2258 49.4753C54.4125 48.7615 53.941 48.0009 53.941 48.0009L52.4834 49.2729L55.2258 49.4753Z" fill="#4B5B19"/>
<path d="M55.581 46.9602C55.581 46.9602 54.4727 47.7407 54.2494 48.0428L54.0261 48.3449L52.8778 47.4587C52.8778 47.4587 53.852 46.7126 53.8752 46.7313C53.8991 46.751 55.5817 46.9612 55.5817 46.9612L55.581 46.9602Z" fill="#6B7B3E"/>
<path d="M55.5817 46.9603C54.6145 46.4743 53.9666 45.858 53.9666 45.858L52.8778 47.4578L55.5817 46.9603Z" fill="#4B5B19"/>
<path d="M55.7228 45.2028C55.7228 45.2028 54.4829 45.7503 54.2041 46.0018L53.9252 46.2532L52.9727 45.1587C52.9727 45.1587 54.0747 44.618 54.0942 44.6423C54.113 44.6655 55.7228 45.2028 55.7228 45.2028Z" fill="#6B7B3E"/>
<path d="M55.7227 45.2028C54.87 44.5369 54.3554 43.8057 54.3554 43.8057L52.9732 45.1598L55.7227 45.2028Z" fill="#4B5B19"/>
<path d="M55.5199 42.9945C55.5199 42.9945 54.4399 43.8142 54.227 44.1228L54.0137 44.4331L52.8346 43.5874C52.8346 43.5874 53.7822 42.8069 53.8054 42.8255C53.8287 42.8442 55.5189 42.9952 55.5189 42.9952L55.5199 42.9945Z" fill="#6B7B3E"/>
<path d="M55.5207 42.9945C54.537 42.5438 53.8669 41.95 53.8669 41.95L52.8353 43.5874L55.5207 42.9945Z" fill="#4B5B19"/>
<path d="M55.3219 40.7138C55.3219 40.7138 54.4844 41.7794 54.3559 42.1325L54.2273 42.4856L52.8729 41.9664C52.8729 41.9664 53.5925 40.9721 53.6204 40.9846C53.6484 40.997 55.3209 40.7145 55.3209 40.7145L55.3219 40.7138Z" fill="#6B7B3E"/>
<path d="M55.3221 40.7138C54.2565 40.526 53.4586 40.1212 53.4586 40.1212L52.8741 41.9657L55.3221 40.7138Z" fill="#4B5B19"/>
<path d="M54.746 39.1554C54.746 39.1554 53.7631 40.089 53.5851 40.4203L53.4072 40.7516L52.1416 40.0413C52.1416 40.0413 52.9975 39.1612 53.0231 39.1767C53.0487 39.1923 54.745 39.1561 54.745 39.1561L54.746 39.1554Z" fill="#6B7B3E"/>
<path d="M54.7473 39.1553C53.7204 38.8151 52.9892 38.2989 52.9892 38.2989L52.144 40.0404L54.7473 39.1553Z" fill="#4B5B19"/>
<path d="M53.9894 36.8844C53.9894 36.8844 53.2485 38.0192 53.1521 38.382L53.0556 38.7447L51.6604 38.3463C51.6604 38.3463 52.2896 37.292 52.319 37.3021C52.3476 37.3111 53.9894 36.8844 53.9894 36.8844Z" fill="#6B7B3E"/>
<path d="M53.9886 36.8843C52.9105 36.7905 52.0803 36.4573 52.0803 36.4573L51.6596 38.3462L53.9886 36.8843Z" fill="#4B5B19"/>
<path d="M53.1542 54.15C53.1542 54.15 51.815 53.946 51.4435 54.0085L51.0737 54.0714L50.8585 52.6366C50.8585 52.6366 52.0784 52.7733 52.0818 52.8025C52.0859 52.8328 53.1542 54.15 53.1542 54.15Z" fill="#6B7B3E"/>
<path d="M53.1542 54.1499C52.7925 53.13 52.7512 52.2369 52.7512 52.2369L50.8574 52.6372L53.1531 54.1506L53.1542 54.1499Z" fill="#4B5B19"/>
<path d="M52.4622 34.3161C52.4622 34.3161 51.5153 35.2851 51.3495 35.6231L51.1847 35.9604L49.8938 35.2989C49.8938 35.2989 50.7157 34.3865 50.7423 34.4014C50.7689 34.4162 52.4615 34.3151 52.4615 34.3151L52.4622 34.3161Z" fill="#6B7B3E"/>
<path d="M52.462 34.3162C51.4224 34.0146 50.6723 33.5278 50.6723 33.5278L49.8937 35.2989L52.462 34.3162Z" fill="#4B5B19"/>
<path d="M51.6208 32.0762C51.6208 32.0762 50.9239 33.2381 50.8408 33.6052L50.7589 33.9716L49.3501 33.6259C49.3501 33.6259 49.9399 32.549 49.9685 32.558C49.9982 32.5663 51.6215 32.0772 51.6215 32.0772L51.6208 32.0762Z" fill="#6B7B3E"/>
<path d="M51.6215 32.0762C50.541 32.023 49.6985 31.7222 49.6985 31.7222L49.3491 33.6256L51.6222 32.0773L51.6215 32.0762Z" fill="#4B5B19"/>
<path d="M53.4762 51.174C53.4762 51.174 52.1314 51.3429 51.7919 51.5051L51.4533 51.6667L50.8544 50.3448C50.8544 50.3448 52.0655 50.1425 52.0771 50.1706C52.0887 50.1987 53.4762 51.174 53.4762 51.174Z" fill="#6B7B3E"/>
<path d="M53.476 51.174C52.8492 50.2912 52.5666 49.4424 52.5666 49.4424L50.8535 50.3438L53.4753 51.173L53.476 51.174Z" fill="#4B5B19"/>
<path d="M54.0726 48.7412C54.0726 48.7412 52.8027 49.2161 52.5099 49.4515L52.2172 49.687L51.3301 48.5388C51.3301 48.5388 52.461 48.0626 52.4795 48.0875C52.4969 48.1131 54.0726 48.7412 54.0726 48.7412Z" fill="#6B7B3E"/>
<path d="M54.0735 48.7411C53.2602 48.0273 52.7886 47.2668 52.7886 47.2668L51.331 48.5388L54.0735 48.7411Z" fill="#4B5B19"/>
<path d="M54.4286 46.2268C54.4286 46.2268 53.3204 47.0073 53.0971 47.3094L52.8738 47.6115L51.7255 46.7253C51.7255 46.7253 52.6996 45.9792 52.7228 45.9979C52.7468 46.0176 54.4293 46.2279 54.4293 46.2279L54.4286 46.2268Z" fill="#6B7B3E"/>
<path d="M54.4293 46.2269C53.4621 45.741 52.8142 45.1246 52.8142 45.1246L51.7255 46.7244L54.4293 46.2269Z" fill="#4B5B19"/>
<path d="M54.5705 44.4694C54.5705 44.4694 53.3306 45.0169 53.0518 45.2684L52.7729 45.5198L51.8203 44.4253C51.8203 44.4253 52.9224 43.8846 52.9419 43.9089C52.9607 43.9321 54.5705 44.4694 54.5705 44.4694Z" fill="#6B7B3E"/>
<path d="M54.5704 44.4694C53.7177 43.8035 53.2031 43.0723 53.2031 43.0723L51.8209 44.4264L54.5704 44.4694Z" fill="#4B5B19"/>
<path d="M54.3695 42.2611C54.3695 42.2611 53.2895 43.0808 53.0766 43.3894L52.8633 43.6997L51.6842 42.854C51.6842 42.854 52.6318 42.0734 52.6551 42.0921C52.6793 42.1101 54.3685 42.2618 54.3685 42.2618L54.3695 42.2611Z" fill="#6B7B3E"/>
<path d="M54.3703 42.2611C53.3866 41.8104 52.7165 41.2166 52.7165 41.2166L51.6849 42.8541L54.3703 42.2611Z" fill="#4B5B19"/>
<path d="M53.3017 47.53C53.3017 47.53 52.1934 48.3105 51.9701 48.6126L51.7468 48.9147L50.5985 48.0285C50.5985 48.0285 51.5727 47.2825 51.5959 47.3011C51.6198 47.3208 53.3024 47.5311 53.3024 47.5311L53.3017 47.53Z" fill="#6B7B3E"/>
<path d="M53.3024 47.5301C52.3352 47.0442 51.6873 46.4278 51.6873 46.4278L50.5985 48.0276L53.3024 47.5301Z" fill="#4B5B19"/>
<path d="M51.8153 49.1026C51.8153 49.1026 50.7071 49.883 50.4838 50.1851L50.2605 50.4873L49.1122 49.6011C49.1122 49.6011 50.0863 48.855 50.1096 48.8737C50.1335 48.8934 51.816 49.1036 51.816 49.1036L51.8153 49.1026Z" fill="#6B7B3E"/>
<path d="M51.816 49.1027C50.8488 48.6167 50.2009 48.0003 50.2009 48.0003L49.1122 49.6001L51.816 49.1027Z" fill="#4B5B19"/>
<path d="M53.4435 45.7726C53.4435 45.7726 52.2036 46.3201 51.9248 46.5716L51.646 46.823L50.6934 45.7285C50.6934 45.7285 51.7954 45.1879 51.8149 45.2121C51.8337 45.2353 53.4435 45.7726 53.4435 45.7726Z" fill="#6B7B3E"/>
<path d="M53.4434 45.7726C52.5907 45.1067 52.0761 44.3755 52.0761 44.3755L50.6939 45.7296L53.4434 45.7726Z" fill="#4B5B19"/>
<path d="M53.2426 43.5653C53.2426 43.5653 52.1626 44.385 51.9496 44.6936L51.7364 45.0039L50.5572 44.1582C50.5572 44.1582 51.5049 43.3777 51.5281 43.3963C51.5513 43.415 53.2415 43.566 53.2415 43.566L53.2426 43.5653Z" fill="#6B7B3E"/>
<path d="M53.2433 43.5653C52.2596 43.1146 51.5896 42.5208 51.5896 42.5208L50.5573 44.1572L53.2426 43.5643L53.2433 43.5653Z" fill="#4B5B19"/>
<path d="M54.1683 39.9811C54.1683 39.9811 53.3308 41.0467 53.2023 41.3999L53.0737 41.753L51.7186 41.2327C51.7186 41.2327 52.4382 40.2385 52.4661 40.2509C52.4941 40.2634 54.1666 39.9808 54.1666 39.9808L54.1683 39.9811Z" fill="#6B7B3E"/>
<path d="M54.1698 39.9811C53.1041 39.7933 52.3063 39.3886 52.3063 39.3886L51.7218 41.2331L54.1698 39.9811Z" fill="#4B5B19"/>
<path d="M53.5946 38.423C53.5946 38.423 52.6116 39.3566 52.4347 39.6872L52.2568 40.0184L50.9912 39.3081C50.9912 39.3081 51.8471 38.428 51.8727 38.4436C51.8983 38.4592 53.5946 38.423 53.5946 38.423Z" fill="#6B7B3E"/>
<path d="M53.595 38.4229C52.568 38.0827 51.8368 37.5665 51.8368 37.5665L50.9916 39.308L53.595 38.4229Z" fill="#4B5B19"/>
<path d="M52.839 36.1517C52.839 36.1517 52.0981 37.2865 52.0017 37.6493L51.9052 38.0121L50.5101 37.6136C50.5101 37.6136 51.1392 36.5594 51.1686 36.5694C51.1972 36.5784 52.839 36.1517 52.839 36.1517Z" fill="#6B7B3E"/>
<path d="M52.8382 36.1517C51.7601 36.0579 50.9299 35.7246 50.9299 35.7246L50.5092 37.6136L52.8382 36.1517Z" fill="#4B5B19"/>
<path d="M52.0038 53.4176C52.0038 53.4176 50.6646 53.2136 50.2931 53.2761L49.9233 53.339L49.7081 51.9042C49.7081 51.9042 50.928 52.0409 50.9314 52.0701C50.9355 52.1003 52.0038 53.4176 52.0038 53.4176Z" fill="#6B7B3E"/>
<path d="M52.0047 53.4175C51.643 52.3975 51.6028 51.5037 51.6028 51.5037L49.709 51.9041L52.0047 53.4175Z" fill="#4B5B19"/>
<path d="M40.9863 63.3467C40.9863 63.3467 40.268 62.1975 39.9798 61.9573L39.6906 61.7177L40.6396 60.6196C40.6396 60.6196 41.3306 61.6342 41.3106 61.6554C41.2895 61.6773 40.988 63.347 40.988 63.347L40.9863 63.3467Z" fill="#6B7B3E"/>
<path d="M40.9872 63.3466C41.5257 62.4081 42.1765 61.7953 42.1765 61.7953L40.6394 60.6203L40.9868 63.3483L40.9872 63.3466Z" fill="#4B5B19"/>
<path d="M43.357 63.4117C43.357 63.4117 42.3928 62.4587 42.0558 62.2922L41.7188 62.1256L42.3886 60.8381C42.3886 60.8381 43.2956 61.6652 43.2807 61.6918C43.2659 61.7184 43.357 63.4117 43.357 63.4117Z" fill="#6B7B3E"/>
<path d="M43.3579 63.4116C43.6653 62.374 44.1569 61.6266 44.1569 61.6266L42.3905 60.8373L43.3589 63.4109L43.3579 63.4116Z" fill="#4B5B19"/>
<path d="M45.5007 63.107C45.5007 63.107 44.3273 62.4285 43.9589 62.3524L43.5915 62.2755L43.9134 60.8605C43.9134 60.8605 45.0001 61.4316 44.9918 61.4612C44.9835 61.4909 45.5 63.106 45.5 63.106L45.5007 63.107Z" fill="#6B7B3E"/>
<path d="M45.5017 63.1071C45.5363 62.0258 45.8236 61.1789 45.8236 61.1789L43.9141 60.8623L45.5007 63.1078L45.5017 63.1071Z" fill="#4B5B19"/>
<path d="M47.1822 62.9653C47.1822 62.9653 46.0007 62.3012 45.6317 62.2286L45.2626 62.1559L45.5683 60.7369C45.5683 60.7369 46.661 61.2948 46.6544 61.3248C46.6472 61.3538 47.1815 62.9642 47.1815 62.9642L47.1822 62.9653Z" fill="#6B7B3E"/>
<path d="M47.1816 62.9652C47.2038 61.8833 47.4812 61.0327 47.4812 61.0327L45.5684 60.7378L47.1816 62.9652Z" fill="#4B5B19"/>
<path d="M50.5785 61.1579C50.5785 61.1579 49.3818 60.5222 49.0111 60.4581L48.6411 60.3951L48.913 58.9706C48.913 58.9706 50.0186 59.5033 50.012 59.5333C50.0054 59.5633 50.5782 61.1596 50.5782 61.1596L50.5785 61.1579Z" fill="#6B7B3E"/>
<path d="M50.5792 61.158C50.5756 60.0757 50.8336 59.2188 50.8336 59.2188L48.9141 58.969L50.5792 61.158Z" fill="#4B5B19"/>
<path d="M49.2093 62.2423C49.2093 62.2423 48.0127 61.6066 47.642 61.5426L47.2719 61.4796L47.5449 60.0543C47.5449 60.0543 48.6505 60.5871 48.6439 60.617C48.6373 60.647 49.21 62.2434 49.21 62.2434L49.2093 62.2423Z" fill="#6B7B3E"/>
<path d="M49.2101 62.2425C49.2065 61.1602 49.4645 60.3033 49.4645 60.3033L47.5449 60.0535L49.2101 62.2425Z" fill="#4B5B19"/>
<path d="M52.4179 59.6737C52.4179 59.6737 51.0993 59.3612 50.7247 59.3928L50.3509 59.4254L50.2542 57.9774C50.2542 57.9774 51.4589 58.213 51.4603 58.2436C51.4616 58.2742 52.4186 59.6748 52.4186 59.6748L52.4179 59.6737Z" fill="#6B7B3E"/>
<path d="M52.4176 59.6736C52.1413 58.6271 52.1734 57.7335 52.1734 57.7335L50.2539 57.9773L52.4176 59.6736Z" fill="#4B5B19"/>
<path d="M53.7636 58.1432C53.7636 58.1432 52.4244 57.9392 52.0528 58.0017L51.6831 58.0645L51.4679 56.6298C51.4679 56.6298 52.6878 56.7665 52.6912 56.7957C52.6953 56.8259 53.7636 58.1432 53.7636 58.1432Z" fill="#6B7B3E"/>
<path d="M53.7645 58.1431C53.4028 57.1231 53.3626 56.2293 53.3626 56.2293L51.4688 56.6296L53.7645 58.1431Z" fill="#4B5B19"/>
<path d="M55.0436 56.7122C55.0436 56.7122 53.702 56.5158 53.3326 56.5814L52.9625 56.646L52.7391 55.2123C52.7391 55.2123 53.9596 55.3411 53.9637 55.3714C53.9678 55.4016 55.0446 56.7115 55.0446 56.7115L55.0436 56.7122Z" fill="#6B7B3E"/>
<path d="M55.0428 56.7123C54.6753 55.6949 54.6289 54.8008 54.6289 54.8008L52.7383 55.2124L55.0428 56.7123Z" fill="#4B5B19"/>
<path d="M38.4772 62.7289C38.4772 62.7289 38.1707 61.4088 37.9745 61.0878L37.7783 60.7668L39.0309 60.0352C39.0309 60.0352 39.357 61.2188 39.3293 61.2332C39.3026 61.2469 38.4755 62.7285 38.4755 62.7285L38.4772 62.7289Z" fill="#6B7B3E"/>
<path d="M38.4763 62.7288C39.2898 62.0156 40.1043 61.6454 40.1043 61.6454L39.031 60.0344L38.4766 62.7271L38.4763 62.7288Z" fill="#4B5B19"/>
<path d="M43.3672 22.3201L44.7181 22.6271L44.7339 22.0027L43.3672 22.3201Z" fill="#261C02"/>
<path d="M42.8523 19.3331C42.8523 19.3331 43.4816 19.6425 44.1215 19.6282C44.7622 19.6149 44.7087 19.3558 44.7087 19.3558L44.629 18.9195C44.629 18.9195 44.361 19.189 43.9629 19.2697C43.5637 19.3511 42.8516 19.332 42.8516 19.332L42.8523 19.3331Z" fill="#261C02"/>
<path d="M43.3425 21.5623C43.3425 21.5623 43.9719 21.8717 44.6118 21.8574C45.2524 21.8442 45.1989 21.585 45.1989 21.585L45.1192 21.1487C45.1192 21.1487 44.8513 21.4183 44.4531 21.4989C44.0539 21.5803 43.3418 21.5613 43.3418 21.5613L43.3425 21.5623Z" fill="#261C02"/>
<path d="M48.932 60.7689C48.932 60.7689 47.7353 60.1333 47.3646 60.0692L46.9946 60.0062L47.2665 58.5816C47.2665 58.5816 48.3721 59.1144 48.3655 59.1444C48.3589 59.1743 48.9317 60.7707 48.9317 60.7707L48.932 60.7689Z" fill="#6B7B3E"/>
<path d="M48.9327 60.7691C48.9291 59.6868 49.1871 58.8299 49.1871 58.8299L47.2676 58.5801L48.9327 60.7691Z" fill="#4B5B19"/>
<path d="M47.432 61.4608C47.432 61.4608 46.2353 60.8251 45.8646 60.7611L45.4946 60.6981L45.7665 59.2735C45.7665 59.2735 46.8721 59.8063 46.8655 59.8363C46.8589 59.8662 47.4317 61.4625 47.4317 61.4625L47.432 61.4608Z" fill="#6B7B3E"/>
<path d="M47.4327 61.461C47.4292 60.3787 47.6872 59.5218 47.6872 59.5218L45.7676 59.272L47.432 61.46L47.4327 61.461Z" fill="#4B5B19"/>
<path d="M45.6918 61.8012C45.6918 61.8012 44.4951 61.1655 44.1244 61.1014L43.7544 61.0384L44.0263 59.6139C44.0263 59.6139 45.1318 60.1466 45.1253 60.1766C45.1187 60.2066 45.6914 61.8029 45.6914 61.8029L45.6918 61.8012Z" fill="#6B7B3E"/>
<path d="M45.6925 61.8013C45.6889 60.719 45.9469 59.8621 45.9469 59.8621L44.0273 59.6123L45.6925 61.8013Z" fill="#4B5B19"/>
<path d="M43.9945 62.0094C43.9945 62.0094 42.7978 61.3737 42.4271 61.3097L42.0571 61.2467L42.329 59.8221C42.329 59.8221 43.4346 60.3548 43.428 60.3848C43.4214 60.4148 43.9942 62.0111 43.9942 62.0111L43.9945 62.0094Z" fill="#6B7B3E"/>
<path d="M43.9952 62.0096C43.9916 60.9273 44.2496 60.0704 44.2496 60.0704L42.3301 59.8206L43.9952 62.0096Z" fill="#4B5B19"/>
<path d="M41.8504 62.0128C41.8504 62.0128 41.1543 60.8501 40.8699 60.6043L40.5854 60.3584L41.5548 59.2795C41.5548 59.2795 42.2265 60.3073 42.2054 60.3292C42.1843 60.3511 41.8494 62.0135 41.8494 62.0135L41.8504 62.0128Z" fill="#6B7B3E"/>
<path d="M41.8498 62.0129C42.406 61.0849 43.0696 60.4843 43.0696 60.4843L41.5553 59.2788L41.8498 62.0129Z" fill="#4B5B19"/>
<path d="M51.7986 51.4582C51.7986 51.4582 50.4652 51.6988 50.1347 51.8789L49.8053 52.0583L49.1366 50.7704C49.1366 50.7704 50.3346 50.505 50.3483 50.5317C50.3609 50.5591 51.7993 51.4592 51.7993 51.4592L51.7986 51.4582Z" fill="#6B7B3E"/>
<path d="M51.7987 51.4583C51.1261 50.6096 50.7983 49.7782 50.7983 49.7782L49.1367 50.7705L51.7987 51.4583Z" fill="#4B5B19"/>
<path d="M51.5983 47.0148C51.5983 47.0148 50.3936 47.636 50.1311 47.9048L49.8679 48.1726L48.8516 47.1365C48.8516 47.1365 49.9196 46.5305 49.9394 46.553C49.9603 46.5748 51.5977 47.0138 51.5977 47.0138L51.5983 47.0148Z" fill="#6B7B3E"/>
<path d="M51.5978 47.0148C50.7057 46.4011 50.1484 45.702 50.1484 45.702L48.8499 47.1371L51.5978 47.0148Z" fill="#4B5B19"/>
<path d="M51.6687 43.0866C51.6687 43.0866 50.4639 43.7078 50.2014 43.9766L49.9382 44.2444L48.9219 43.2083C48.9219 43.2083 49.9899 42.6023 50.0097 42.6248C50.0306 42.6466 51.669 43.0849 51.669 43.0849L51.6687 43.0866Z" fill="#6B7B3E"/>
<path d="M51.6681 43.0866C50.776 42.4729 50.2187 41.7738 50.2187 41.7738L48.9203 43.2089L51.6681 43.0866Z" fill="#4B5B19"/>
<path d="M51.6648 40.5263C51.6648 40.5263 50.46 41.1474 50.1975 41.4162L49.9343 41.684L48.918 40.6479C48.918 40.6479 49.986 40.0419 50.0059 40.0644C50.0267 40.0862 51.6641 40.5253 51.6641 40.5253L51.6648 40.5263Z" fill="#6B7B3E"/>
<path d="M51.6642 40.5262C50.7721 39.9126 50.2148 39.2135 50.2148 39.2135L48.9164 40.6486L51.6642 40.5262Z" fill="#4B5B19"/>
<path d="M52.1648 42.0605C52.1648 42.0605 50.96 42.6816 50.6975 42.9504L50.4343 43.2182L49.418 42.1821C49.418 42.1821 50.486 41.5761 50.5058 41.5986C50.5257 41.6211 52.1641 42.0595 52.1641 42.0595L52.1648 42.0605Z" fill="#6B7B3E"/>
<path d="M52.1642 42.0604C51.2721 41.4468 50.7148 40.7476 50.7148 40.7476L49.4164 42.1828L52.1642 42.0604Z" fill="#4B5B19"/>
<path d="M51.7175 38.5541C51.7175 38.5541 50.5127 39.1753 50.2502 39.4441L49.987 39.7119L48.9707 38.6758C48.9707 38.6758 50.0387 38.0698 50.0586 38.0923C50.0794 38.1141 51.7168 38.5531 51.7168 38.5531L51.7175 38.5541Z" fill="#6B7B3E"/>
<path d="M51.7169 38.5541C50.8248 37.9405 50.2675 37.2413 50.2675 37.2413L48.9691 38.6764L51.7169 38.5541Z" fill="#4B5B19"/>
<path d="M51.5945 36.5737C51.5945 36.5737 50.3897 37.1948 50.1272 37.4636L49.864 37.7314L48.8477 36.6953C48.8477 36.6953 49.9157 36.0893 49.9356 36.1118C49.9554 36.1343 51.5938 36.5726 51.5938 36.5726L51.5945 36.5737Z" fill="#6B7B3E"/>
<path d="M51.5939 36.5736C50.7018 35.96 50.1445 35.2608 50.1445 35.2608L48.846 36.6959L51.5939 36.5736Z" fill="#4B5B19"/>
<path d="M50.0506 53.1589C50.0506 53.1589 48.7171 53.3995 48.3867 53.5796L48.0573 53.759L47.3886 52.4711C47.3886 52.4711 48.5866 52.2056 48.6002 52.2323C48.6129 52.2597 50.0513 53.1599 50.0513 53.1599L50.0506 53.1589Z" fill="#6B7B3E"/>
<path d="M50.0507 53.159C49.3788 52.3114 49.0503 51.4789 49.0503 51.4789L47.3887 52.4712L50.0507 53.159Z" fill="#4B5B19"/>
<path d="M47.0452 57.7428C47.0452 57.7428 45.7785 57.2598 45.4035 57.2423L45.0284 57.2247L45.1226 55.7772C45.1226 55.7772 46.2863 56.1683 46.2831 56.1989C46.28 56.2296 47.0462 57.7421 47.0462 57.7421L47.0452 57.7428Z" fill="#6B7B3E"/>
<path d="M47.0456 57.7427C46.9083 56.669 47.0578 55.787 47.0578 55.787L45.123 55.7771L47.0466 57.742L47.0456 57.7427Z" fill="#4B5B19"/>
<path d="M44.3558 60.3497C44.3558 60.3497 43.0891 59.8668 42.714 59.8492L42.3389 59.8316L42.4332 58.3841C42.4332 58.3841 43.5968 58.7752 43.5937 58.8059C43.5906 58.8365 44.3568 60.349 44.3568 60.349L44.3558 60.3497Z" fill="#6B7B3E"/>
<path d="M44.3562 60.3497C44.2189 59.2759 44.3683 58.394 44.3683 58.394L42.4336 58.384L44.3562 60.3497Z" fill="#4B5B19"/>
<path d="M49.1326 54.955C49.1326 54.955 47.7992 55.1957 47.4687 55.3757L47.1393 55.5551L46.4706 54.2672C46.4706 54.2672 47.6686 54.0018 47.6823 54.0285C47.6949 54.0559 49.1333 54.956 49.1333 54.956L49.1326 54.955Z" fill="#6B7B3E"/>
<path d="M49.1327 54.9551C48.4608 54.1075 48.1323 53.275 48.1323 53.275L46.4707 54.2673L49.1327 54.9551Z" fill="#4B5B19"/>
<path d="M48.2791 56.3571C48.2791 56.3571 46.9456 56.5977 46.6152 56.7778L46.2858 56.9572L45.6171 55.6693C45.6171 55.6693 46.8161 55.4032 46.8288 55.4306C46.8414 55.458 48.2798 56.3581 48.2798 56.3581L48.2791 56.3571Z" fill="#6B7B3E"/>
<path d="M48.2799 56.3573C47.608 55.5096 47.2795 54.6772 47.2795 54.6772L45.6172 55.6685L48.2792 56.3562L48.2799 56.3573Z" fill="#4B5B19"/>
<path d="M50.3089 59.3693C50.3089 59.3693 49.1123 58.7336 48.7415 58.6696L48.3715 58.6065L48.6445 57.1813C48.6445 57.1813 49.7501 57.714 49.7435 57.744C49.7369 57.774 50.3096 59.3703 50.3096 59.3703L50.3089 59.3693Z" fill="#6B7B3E"/>
<path d="M50.3097 59.3694C50.3061 58.2871 50.5641 57.4302 50.5641 57.4302L48.6445 57.1804L50.3097 59.3694Z" fill="#4B5B19"/>
<path d="M51.9034 58.1372C51.9034 58.1372 50.5788 57.8512 50.2053 57.891L49.8319 57.9309L49.7053 56.4852C49.7053 56.4852 50.9146 56.6967 50.916 56.7273C50.9173 56.7579 51.9034 58.1372 51.9034 58.1372Z" fill="#6B7B3E"/>
<path d="M51.9031 58.1371C51.6052 57.0962 51.6193 56.2029 51.6193 56.2029L49.7051 56.4851L51.9031 58.1371Z" fill="#4B5B19"/>
<path d="M52.0792 56.5476C52.0792 56.5476 50.7546 56.2616 50.3811 56.3014L50.0077 56.3413L49.8811 54.8956C49.8811 54.8956 51.0904 55.1071 51.0918 55.1377C51.0931 55.1683 52.0781 56.5483 52.0781 56.5483L52.0792 56.5476Z" fill="#6B7B3E"/>
<path d="M52.0789 56.5475C51.781 55.5066 51.7951 54.6133 51.7951 54.6133L49.8809 54.8955L52.0789 56.5475Z" fill="#4B5B19"/>
<path d="M54.0772 53.3987C54.0772 53.3987 52.7526 53.1127 52.3792 53.1525L52.0057 53.1924L51.8792 51.7467C51.8792 51.7467 53.0885 51.9582 53.0898 51.9888C53.0911 52.0194 54.0772 53.3987 54.0772 53.3987Z" fill="#6B7B3E"/>
<path d="M54.0769 53.3986C53.779 52.3577 53.7932 51.4644 53.7932 51.4644L51.8789 51.7466L54.0769 53.3986Z" fill="#4B5B19"/>
<path d="M52.9795 55.3623C52.9795 55.3623 51.655 55.0763 51.2815 55.1161L50.9081 55.156L50.7815 53.7103C50.7815 53.7103 51.9908 53.9218 51.9922 53.9524C51.9935 53.983 52.9795 55.3623 52.9795 55.3623Z" fill="#6B7B3E"/>
<path d="M52.9793 55.3622C52.6814 54.3213 52.6955 53.428 52.6955 53.428L50.7812 53.7102L52.9793 55.3622Z" fill="#4B5B19"/>
<path d="M50.9991 54.9138C50.9991 54.9138 49.6745 54.6278 49.3011 54.6676L48.9276 54.7075L48.801 53.2618C48.801 53.2618 50.0104 53.4733 50.0117 53.5039C50.013 53.5345 50.9991 54.9138 50.9991 54.9138Z" fill="#6B7B3E"/>
<path d="M50.9988 54.9137C50.7009 53.8728 50.715 52.9795 50.715 52.9795L48.8008 53.2617L50.9988 54.9137Z" fill="#4B5B19"/>
<path d="M50.2901 56.6865C50.2901 56.6865 48.9655 56.4005 48.5921 56.4403L48.2186 56.4802L48.0921 55.0345C48.0921 55.0345 49.3014 55.246 49.3027 55.2766C49.3041 55.3072 50.2908 56.6875 50.2908 56.6875L50.2901 56.6865Z" fill="#6B7B3E"/>
<path d="M50.2899 56.6864C49.9919 55.6455 50.0061 54.7522 50.0061 54.7522L48.0918 55.0344L50.2899 56.6864Z" fill="#4B5B19"/>
<path d="M49.3624 58.1863C49.3624 58.1863 48.0378 57.9003 47.6643 57.9401L47.2909 57.98L47.1643 56.5343C47.1643 56.5343 48.3737 56.7458 48.375 56.7764C48.3763 56.807 49.3624 58.1863 49.3624 58.1863Z" fill="#6B7B3E"/>
<path d="M49.3621 58.1861C49.0642 57.1453 49.0783 56.252 49.0783 56.252L47.1641 56.5342L49.3621 58.1861Z" fill="#4B5B19"/>
<path d="M47.8049 59.8511C47.8049 59.8511 46.5765 59.279 46.2029 59.2349L45.8293 59.1909L46.0261 57.753C46.0261 57.753 47.1589 58.2266 47.1534 58.2559C47.1485 58.2862 47.8042 59.8501 47.8042 59.8501L47.8049 59.8511Z" fill="#6B7B3E"/>
<path d="M47.8054 59.851C47.7461 58.7706 47.9572 57.9021 47.9572 57.9021L46.0273 57.7539L47.8044 59.8517L47.8054 59.851Z" fill="#4B5B19"/>
<path d="M46.4787 60.6116C46.4787 60.6116 45.2503 60.0395 44.8767 59.9954L44.5031 59.9514L44.7 58.5135C44.7 58.5135 45.8328 58.9871 45.8272 59.0164C45.8224 59.0467 46.478 60.6106 46.478 60.6106L46.4787 60.6116Z" fill="#6B7B3E"/>
<path d="M46.4793 60.6115C46.4193 59.5301 46.6311 58.6626 46.6311 58.6626L44.7012 58.5144L46.4782 60.6122L46.4793 60.6115Z" fill="#4B5B19"/>
<path d="M35.8165 28.261C35.8165 28.261 36.9788 28.7251 37.3246 28.746L37.6705 28.767L37.5628 30.1022C37.5628 30.1022 36.4949 29.7239 36.4973 29.6967C36.5008 29.6688 35.8154 28.2617 35.8154 28.2617L35.8165 28.261Z" fill="#6B7B3E"/>
<path d="M35.8171 28.2609C35.9288 29.2531 35.7784 30.0652 35.7784 30.0652L37.5645 30.1014L35.8182 28.2603L35.8171 28.2609Z" fill="#4B5B19"/>
<path d="M31.6934 33.002C31.6934 33.002 32.9434 33.0552 33.2774 32.9597L33.6104 32.8649L33.9521 34.1595C33.9521 34.1595 32.8192 34.157 32.8127 34.1299C32.8063 34.1028 31.6934 33.002 31.6934 33.002Z" fill="#6B7B3E"/>
<path d="M31.6924 33.0019C32.1268 33.9018 32.2533 34.7174 32.2533 34.7174L33.9502 34.1601L31.6924 33.0019Z" fill="#4B5B19"/>
<path d="M32.7637 31.3032C32.7637 31.3032 34.0137 31.3564 34.3477 31.2609L34.6808 31.1661L35.0225 32.4607C35.0225 32.4607 33.8895 32.4583 33.8831 32.4311C33.8766 32.404 32.7637 31.3032 32.7637 31.3032Z" fill="#6B7B3E"/>
<path d="M32.7627 31.3032C33.1971 32.2031 33.3236 33.0186 33.3236 33.0186L35.0205 32.4614L32.7627 31.3032Z" fill="#4B5B19"/>
<path d="M34.1699 29.6665C34.1699 29.6665 35.3961 29.916 35.7403 29.8751L36.0845 29.8341L36.2182 31.1669C36.2182 31.1669 35.1004 30.9862 35.0977 30.958C35.0967 30.9301 34.1706 29.6675 34.1706 29.6675L34.1699 29.6665Z" fill="#6B7B3E"/>
<path d="M34.1705 29.6666C34.4576 30.6233 34.4545 31.4491 34.4545 31.4491L36.2182 31.166L34.1705 29.6666Z" fill="#4B5B19"/>
<path d="M28.7539 40.8364C28.7539 40.8364 29.9364 40.427 30.2118 40.2169L30.4873 40.0068L31.2795 41.086C31.2795 41.086 30.2239 41.499 30.2086 41.4764C30.1932 41.4539 28.7539 40.8364 28.7539 40.8364Z" fill="#6B7B3E"/>
<path d="M28.7539 40.8364C29.4874 41.5146 29.9048 42.2265 29.9048 42.2265L31.2795 41.086L28.7539 40.8364Z" fill="#4B5B19"/>
<path d="M29.1094 39.0654C29.1094 39.0654 30.2919 38.656 30.5673 38.4459L30.8428 38.2358L31.635 39.315C31.635 39.315 30.5794 39.728 30.5641 39.7054C30.5487 39.6829 29.1094 39.0654 29.1094 39.0654Z" fill="#6B7B3E"/>
<path d="M29.1094 39.0654C29.8429 39.7436 30.2603 40.4555 30.2603 40.4555L31.635 39.315L29.1094 39.0654Z" fill="#4B5B19"/>
<path d="M29.6944 36.9773C29.6944 36.9773 30.9244 36.7456 31.2274 36.5782L31.5305 36.4108L32.1555 37.5949C32.1555 37.5949 31.0516 37.8487 31.0393 37.8241C31.0271 37.7994 29.6934 36.978 29.6934 36.978L29.6944 36.9773Z" fill="#6B7B3E"/>
<path d="M29.6952 36.9773C30.3213 37.7555 30.6296 38.5208 30.6296 38.5208L32.1573 37.5941L29.6952 36.9773Z" fill="#4B5B19"/>
<path d="M30.623 34.9973C30.623 34.9973 31.8686 34.881 32.1868 34.7423L32.5049 34.6037L33.0173 35.8405C33.0173 35.8405 31.8938 35.9906 31.8846 35.9639C31.8744 35.9379 30.623 34.9973 30.623 34.9973Z" fill="#6B7B3E"/>
<path d="M30.6235 34.9973C31.1749 35.831 31.4115 36.621 31.4115 36.621L33.0178 35.8404L30.6235 34.9973Z" fill="#4B5B19"/>
<path d="M28.5352 42.7607C28.5352 42.7607 29.7176 42.3514 29.9931 42.1412L30.2686 41.9311L31.0607 43.0103C31.0607 43.0103 30.0052 43.4233 29.9898 43.4007C29.9745 43.3782 28.5352 42.7607 28.5352 42.7607Z" fill="#6B7B3E"/>
<path d="M28.5352 42.7607C29.2686 43.4389 29.686 44.1508 29.686 44.1508L31.0607 43.0103L28.5352 42.7607Z" fill="#4B5B19"/>
<path d="M28.2403 44.8655C28.2403 44.8655 29.2957 44.1946 29.5162 43.9258L29.7357 43.6578L30.7555 44.525C30.7555 44.525 29.8237 45.1702 29.8032 45.1511C29.7828 45.1321 28.2396 44.8644 28.2396 44.8644L28.2403 44.8655Z" fill="#6B7B3E"/>
<path d="M28.2402 44.8655C29.1101 45.3562 29.6815 45.9527 29.6815 45.9527L30.7562 44.526L28.2409 44.8665L28.2402 44.8655Z" fill="#4B5B19"/>
<path d="M28.4805 47.3101C28.4805 47.3101 29.3325 46.3936 29.4769 46.0792L29.6224 45.7641L30.8285 46.3453C30.8285 46.3453 30.0907 47.2049 30.0655 47.1921C30.0403 47.1793 28.4805 47.3101 28.4805 47.3101Z" fill="#6B7B3E"/>
<path d="M28.4805 47.3101C29.446 47.5646 30.1492 47.9978 30.1492 47.9978L30.8285 46.3453L28.4805 47.3101Z" fill="#4B5B19"/>
<path d="M28.9801 48.7362C28.9801 48.7362 29.9559 47.953 30.1442 47.6612L30.3332 47.3704L31.443 48.1208C31.443 48.1208 30.5889 48.8646 30.566 48.8487C30.5432 48.8328 28.9801 48.7362 28.9801 48.7362Z" fill="#6B7B3E"/>
<path d="M28.9805 48.7363C29.8996 49.1275 30.5325 49.6581 30.5325 49.6581L31.4434 48.1209L28.9805 48.7363Z" fill="#4B5B19"/>
<path d="M29.5027 50.8836C29.5027 50.8836 30.2708 49.8968 30.3873 49.5699L30.5037 49.2431L31.7562 49.7162C31.7562 49.7162 31.0968 50.638 31.0712 50.6269C31.0457 50.6158 29.5027 50.8836 29.5027 50.8836Z" fill="#6B7B3E"/>
<path d="M29.502 50.8835C30.4866 51.0515 31.2249 51.4218 31.2249 51.4218L31.7554 49.7161L29.502 50.8835Z" fill="#4B5B19"/>
<path d="M30.3141 52.9285C30.3141 52.9285 30.8079 51.7789 30.8378 51.433L30.8677 51.087L32.1991 51.2289C32.1991 51.2289 31.7942 52.2863 31.7663 52.2828C31.7384 52.2793 30.3134 52.9274 30.3134 52.9274L30.3141 52.9285Z" fill="#6B7B3E"/>
<path d="M30.3145 52.9284C31.3096 52.8432 32.1172 53.0132 32.1172 53.0132L32.1994 51.2288L30.3138 52.9274L30.3145 52.9284Z" fill="#4B5B19"/>
<path d="M31.0593 54.4923C31.0593 54.4923 31.7695 53.4623 31.8666 53.1291L31.9637 52.7959L33.2416 53.1962C33.2416 53.1962 32.6369 54.1543 32.6093 54.1446C32.5834 54.1352 31.0586 54.4912 31.0586 54.4912L31.0593 54.4923Z" fill="#6B7B3E"/>
<path d="M31.0586 54.4922C32.0513 54.6037 32.8094 54.9304 32.8094 54.9304L33.2417 53.1972L31.0586 54.4922Z" fill="#4B5B19"/>
<path d="M32.0674 56.3623C32.0674 56.3623 32.5197 55.196 32.5389 54.8498L32.5565 54.5033L33.8922 54.5987C33.8922 54.5987 33.5239 55.6702 33.4967 55.6678C33.4688 55.6643 32.0681 56.3633 32.0681 56.3633L32.0674 56.3623Z" fill="#6B7B3E"/>
<path d="M32.0665 56.3622C33.0585 56.2416 33.8713 56.3841 33.8713 56.3841L33.8913 54.5986L32.0665 56.3622Z" fill="#4B5B19"/>
<path d="M33.7122 58.1868C33.7122 58.1868 33.856 56.9441 33.7855 56.605L33.7151 56.2659L35.0316 56.0202C35.0316 56.0202 34.9459 57.1499 34.9191 57.1546C34.8916 57.1583 33.7119 58.1885 33.7119 58.1885L33.7122 58.1868Z" fill="#6B7B3E"/>
<path d="M33.7117 58.1868C34.6408 57.8195 35.4631 57.7515 35.4631 57.7515L35.0314 56.0186L33.7117 58.1868Z" fill="#4B5B19"/>
<path d="M34.9599 59.0399C34.9599 59.0399 35.2811 57.8309 35.2611 57.4844L35.2412 57.1379L36.5792 57.0846C36.5792 57.0846 36.332 58.1908 36.3034 58.1907C36.2749 58.1907 34.9599 59.0399 34.9599 59.0399Z" fill="#6B7B3E"/>
<path d="M34.959 59.0399C35.9307 58.8101 36.7553 58.862 36.7553 58.862L36.5784 57.0846L34.959 59.0399Z" fill="#4B5B19"/>
<path d="M36.6519 60.4603C36.6519 60.4603 36.6855 59.2101 36.5862 58.8772L36.4859 58.5449L37.7751 58.1843C37.7751 58.1843 37.7896 59.3178 37.7624 59.3242C37.7353 59.3307 36.6508 60.461 36.6508 60.461L36.6519 60.4603Z" fill="#6B7B3E"/>
<path d="M36.6522 60.4602C37.5447 60.0128 38.3584 59.8726 38.3584 59.8726L37.7755 58.1842L36.6522 60.4602Z" fill="#4B5B19"/>
<path d="M38.7115 61.5214C38.7115 61.5214 38.4277 60.3029 38.2472 60.0072L38.0668 59.7115L39.2229 59.0365C39.2229 59.0365 39.5234 60.1296 39.4988 60.1419C39.4738 60.1559 38.7105 61.5221 38.7105 61.5221L38.7115 61.5214Z" fill="#6B7B3E"/>
<path d="M38.7119 61.5214C39.4633 60.8625 40.2142 60.5221 40.2142 60.5221L39.2233 59.0365L38.7109 61.5221L38.7119 61.5214Z" fill="#4B5B19"/>
<path d="M37.1153 28.3679C37.1153 28.3679 38.2776 28.832 38.6235 28.853L38.9693 28.8739L38.8616 30.2091C38.8616 30.2091 37.7937 29.8308 37.7962 29.8036C37.7997 29.7757 37.1143 28.3686 37.1143 28.3686L37.1153 28.3679Z" fill="#6B7B3E"/>
<path d="M37.116 28.3679C37.2267 29.3607 37.0772 30.1722 37.0772 30.1722L38.8633 30.2084L37.117 28.3672L37.116 28.3679Z" fill="#4B5B19"/>
<path d="M32.9922 33.1089C32.9922 33.1089 34.2422 33.1621 34.5763 33.0666L34.9093 32.9718L35.251 34.2664C35.251 34.2664 34.118 34.2639 34.1116 34.2368C34.1051 34.2097 32.9922 33.1089 32.9922 33.1089Z" fill="#6B7B3E"/>
<path d="M32.9912 33.1089C33.4257 34.0087 33.5521 34.8243 33.5521 34.8243L35.249 34.2671L32.9912 33.1089Z" fill="#4B5B19"/>
<path d="M34.0605 31.4102C34.0605 31.4102 35.3106 31.4634 35.6446 31.3679L35.9776 31.2731L36.3193 32.5676C36.3193 32.5676 35.1864 32.5652 35.18 32.5381C35.1735 32.511 34.0605 31.4102 34.0605 31.4102Z" fill="#6B7B3E"/>
<path d="M34.0615 31.4102C34.4959 32.31 34.6224 33.1256 34.6224 33.1256L36.3193 32.5683L34.0615 31.4102Z" fill="#4B5B19"/>
<path d="M35.4688 29.7744C35.4688 29.7744 36.6949 30.0239 37.0392 29.983L37.3834 29.9421L37.5171 31.2748C37.5171 31.2748 36.3992 31.0941 36.3965 31.0659C36.3938 31.0377 35.4694 29.7754 35.4694 29.7754L35.4688 29.7744Z" fill="#6B7B3E"/>
<path d="M35.4694 29.7745C35.7565 30.7312 35.7534 31.557 35.7534 31.557L37.517 31.2739L35.4694 29.7745Z" fill="#4B5B19"/>
<path d="M30.0527 40.9434C30.0527 40.9434 31.2352 40.534 31.5107 40.3238L31.7861 40.1137L32.5783 41.1929C32.5783 41.1929 31.5228 41.6059 31.5074 41.5833C31.4921 41.5608 30.0527 40.9434 30.0527 40.9434Z" fill="#6B7B3E"/>
<path d="M30.0527 40.9434C30.7862 41.6215 31.2037 42.3334 31.2037 42.3334L32.5783 41.1929L30.0527 40.9434Z" fill="#4B5B19"/>
<path d="M30.4082 39.1724C30.4082 39.1724 31.5907 38.763 31.8661 38.5528L32.1416 38.3427L32.9338 39.422C32.9338 39.422 31.8782 39.8349 31.8629 39.8123C31.8475 39.7898 30.4082 39.1724 30.4082 39.1724Z" fill="#6B7B3E"/>
<path d="M30.4082 39.1724C31.1417 39.8505 31.5591 40.5624 31.5591 40.5624L32.9338 39.422L30.4082 39.1724Z" fill="#4B5B19"/>
<path d="M30.9932 37.0845C30.9932 37.0845 32.2222 36.8535 32.5263 36.6854L32.8293 36.5179L33.4544 37.7021C33.4544 37.7021 32.3505 37.9559 32.3382 37.9312C32.3259 37.9066 30.9922 37.0852 30.9922 37.0852L30.9932 37.0845Z" fill="#6B7B3E"/>
<path d="M30.994 37.0845C31.6202 37.8627 31.9284 38.628 31.9284 38.628L33.4562 37.7013L30.994 37.0845Z" fill="#4B5B19"/>
<path d="M31.9238 35.1055C31.9238 35.1055 33.1694 34.9892 33.4875 34.8505L33.8057 34.7118L34.3181 35.9486C34.3181 35.9486 33.1946 36.0988 33.1854 36.0721C33.1751 36.046 31.9249 35.1048 31.9249 35.1048L31.9238 35.1055Z" fill="#6B7B3E"/>
<path d="M31.9234 35.1054C32.4748 35.9391 32.7103 36.7299 32.7103 36.7299L34.3166 35.9493L31.9224 35.1061L31.9234 35.1054Z" fill="#4B5B19"/>
<path d="M29.834 42.8689C29.834 42.8689 31.0165 42.4595 31.2919 42.2494L31.5674 42.0392L32.3596 43.1185C32.3596 43.1185 31.304 43.5314 31.2887 43.5089C31.2733 43.4863 29.834 42.8689 29.834 42.8689Z" fill="#6B7B3E"/>
<path d="M29.834 42.8689C30.5675 43.547 30.9849 44.2589 30.9849 44.2589L32.3596 43.1185L29.834 42.8689Z" fill="#4B5B19"/>
<path d="M29.5391 44.9736C29.5391 44.9736 30.5945 44.3027 30.815 44.034L31.0346 43.7659L32.0543 44.6331C32.0543 44.6331 31.1225 45.2783 31.1021 45.2593C31.0816 45.2402 29.5384 44.9726 29.5384 44.9726L29.5391 44.9736Z" fill="#6B7B3E"/>
<path d="M29.5391 44.9736C30.4089 45.4643 30.9803 46.0609 30.9803 46.0609L32.055 44.6342L29.5398 44.9747L29.5391 44.9736Z" fill="#4B5B19"/>
<path d="M30.6036 46.0144C30.6036 46.0144 31.659 45.3435 31.8795 45.0748L32.099 44.8067L33.1188 45.6739C33.1188 45.6739 32.187 46.3191 32.1665 46.3001C32.146 46.281 30.6029 46.0134 30.6029 46.0134L30.6036 46.0144Z" fill="#6B7B3E"/>
<path d="M30.6035 46.0144C31.4744 46.5044 32.0448 47.1016 32.0448 47.1016L33.1194 45.6749L30.6042 46.0154L30.6035 46.0144Z" fill="#4B5B19"/>
<path d="M31.086 43.9817C31.086 43.9817 32.1414 43.3108 32.3619 43.042L32.5814 42.774L33.6012 43.6412C33.6012 43.6412 32.6694 44.2864 32.6489 44.2673C32.6285 44.2483 31.0853 43.9806 31.0853 43.9806L31.086 43.9817Z" fill="#6B7B3E"/>
<path d="M31.0859 43.9817C31.9568 44.4717 32.5272 45.0689 32.5272 45.0689L33.6018 43.6422L31.0866 43.9827L31.0859 43.9817Z" fill="#4B5B19"/>
<path d="M31.377 41.863C31.377 41.863 32.4324 41.1921 32.6529 40.9234L32.8724 40.6553L33.8929 41.5236C33.8929 41.5236 32.9611 42.1688 32.9406 42.1497C32.9201 42.1307 31.377 41.863 31.377 41.863Z" fill="#6B7B3E"/>
<path d="M31.377 41.863C32.2479 42.353 32.8182 42.9503 32.8182 42.9503L33.8929 41.5236L31.3777 41.8641L31.377 41.863Z" fill="#4B5B19"/>
<path d="M32.209 38.7759C32.209 38.7759 33.4239 38.478 33.7185 38.2938L34.0121 38.1103L34.7011 39.2583C34.7011 39.2583 33.6126 39.5722 33.5986 39.5472C33.5846 39.5222 32.209 38.7759 32.209 38.7759Z" fill="#6B7B3E"/>
<path d="M32.209 38.7759C32.8767 39.5183 33.2264 40.2673 33.2264 40.2673L34.7011 39.2583L32.209 38.7759Z" fill="#4B5B19"/>
<path d="M32.6836 36.5225C32.6836 36.5225 33.8985 36.2245 34.1931 36.0403L34.4867 35.8568L35.1757 37.0049C35.1757 37.0049 34.0872 37.3188 34.0732 37.2938C34.0592 37.2688 32.6836 36.5225 32.6836 36.5225Z" fill="#6B7B3E"/>
<path d="M32.6836 36.5225C33.3514 37.2649 33.701 38.0139 33.701 38.0139L35.1757 37.0049L32.6836 36.5225Z" fill="#4B5B19"/>
<path d="M29.7812 47.4175C29.7812 47.4175 30.6333 46.501 30.7777 46.1866L30.9232 45.8715L32.1293 46.4528C32.1293 46.4528 31.3915 47.3124 31.3663 47.2996C31.3411 47.2867 29.7812 47.4175 29.7812 47.4175Z" fill="#6B7B3E"/>
<path d="M29.7812 47.4175C30.7468 47.672 31.45 48.1052 31.45 48.1052L32.1293 46.4527L29.7812 47.4175Z" fill="#4B5B19"/>
<path d="M30.2809 48.8436C30.2809 48.8436 31.2567 48.0604 31.445 47.7686L31.634 47.4778L32.7438 48.2282C32.7438 48.2282 31.8897 48.972 31.8668 48.9561C31.844 48.9402 30.2809 48.8436 30.2809 48.8436Z" fill="#6B7B3E"/>
<path d="M30.2812 48.8438C31.2004 49.2349 31.8333 49.7655 31.8333 49.7655L32.7442 48.2283L30.2812 48.8438Z" fill="#4B5B19"/>
<path d="M30.8015 50.9908C30.8015 50.9908 31.5697 50.004 31.6861 49.6771L31.8025 49.3502L33.055 49.8234C33.055 49.8234 32.3956 50.7452 32.3701 50.7341C32.3445 50.723 30.8015 50.9908 30.8015 50.9908Z" fill="#6B7B3E"/>
<path d="M30.8008 50.9907C31.7854 51.1587 32.5238 51.529 32.5238 51.529L33.0543 49.8233L30.8008 50.9907Z" fill="#4B5B19"/>
<path d="M31.6149 53.0359C31.6149 53.0359 32.1087 51.8863 32.1386 51.5404L32.1685 51.1944L33.4999 51.3363C33.4999 51.3363 33.095 52.3938 33.0671 52.3903C33.0392 52.3868 31.6142 53.0349 31.6142 53.0349L31.6149 53.0359Z" fill="#6B7B3E"/>
<path d="M31.6152 53.0358C32.6104 52.9506 33.418 53.1207 33.418 53.1207L33.5002 51.3362L31.6145 53.0348L31.6152 53.0358Z" fill="#4B5B19"/>
<path d="M32.3581 54.5987C32.3581 54.5987 33.0684 53.5688 33.1655 53.2356L33.2626 52.9024L34.5405 53.3027C34.5405 53.3027 33.9358 54.2607 33.9082 54.251C33.8823 54.2417 32.3574 54.5977 32.3574 54.5977L32.3581 54.5987Z" fill="#6B7B3E"/>
<path d="M32.3574 54.5986C33.3501 54.7101 34.1083 55.0369 34.1083 55.0369L34.5405 53.3036L32.3574 54.5986Z" fill="#4B5B19"/>
<path d="M33.3682 56.4688C33.3682 56.4688 33.8205 55.3024 33.8397 54.9563L33.8572 54.6098L35.193 54.7051C35.193 54.7051 34.8247 55.7767 34.7975 55.7742C34.7696 55.7707 33.3689 56.4698 33.3689 56.4698L33.3682 56.4688Z" fill="#6B7B3E"/>
<path d="M33.3672 56.4686C34.3593 56.348 35.1721 56.4905 35.1721 56.4905L35.1921 54.705L33.3672 56.4686Z" fill="#4B5B19"/>
<path d="M35.0111 58.2949C35.0111 58.2949 35.1548 57.0522 35.0844 56.7131L35.0139 56.374L36.3304 56.1284C36.3304 56.1284 36.2447 57.258 36.2179 57.2628C36.1905 57.2665 35.0107 58.2966 35.0107 58.2966L35.0111 58.2949Z" fill="#6B7B3E"/>
<path d="M35.0105 58.295C35.9396 57.9277 36.7619 57.8596 36.7619 57.8596L36.3302 56.1267L35.0105 58.295Z" fill="#4B5B19"/>
<path d="M36.2587 59.148C36.2587 59.148 36.5799 57.939 36.5599 57.5925L36.54 57.246L37.878 57.1928C37.878 57.1928 37.6308 58.299 37.6022 58.2989C37.5737 58.2988 36.2587 59.148 36.2587 59.148Z" fill="#6B7B3E"/>
<path d="M36.2578 59.148C37.2296 58.9182 38.0541 58.9702 38.0541 58.9702L37.8772 57.1928L36.2578 59.148Z" fill="#4B5B19"/>
<path d="M37.9507 60.5677C37.9507 60.5677 37.9843 59.3176 37.885 58.9846L37.7847 58.6523L39.074 58.2917C39.074 58.2917 39.0884 59.4252 39.0613 59.4316C39.0342 59.4381 37.9497 60.5684 37.9497 60.5684L37.9507 60.5677Z" fill="#6B7B3E"/>
<path d="M37.951 60.5677C38.8435 60.1202 39.6573 59.98 39.6573 59.98L39.0743 58.2916L37.951 60.5677Z" fill="#4B5B19"/>
<path d="M40.0123 61.6295C40.0123 61.6295 39.7284 60.4111 39.548 60.1154L39.3676 59.8197L40.5237 59.1447C40.5237 59.1447 40.8242 60.2378 40.7996 60.2501C40.7746 60.2641 40.0113 61.6302 40.0113 61.6302L40.0123 61.6295Z" fill="#6B7B3E"/>
<path d="M40.0127 61.6296C40.7641 60.9706 41.515 60.6302 41.515 60.6302L40.5241 59.1447L40.0117 61.6303L40.0127 61.6296Z" fill="#4B5B19"/>
<path d="M31.6232 47.6544C31.6232 47.6544 32.702 47.0201 32.9298 46.7599L33.1587 46.4989L34.1486 47.4015C34.1486 47.4015 33.1962 48.0143 33.175 47.9942C33.1555 47.9744 31.6225 47.6534 31.6225 47.6534L31.6232 47.6544Z" fill="#6B7B3E"/>
<path d="M31.623 47.6543C32.4757 48.1748 33.0256 48.7904 33.0256 48.7904L34.1484 47.4014L31.623 47.6543Z" fill="#4B5B19"/>
<path d="M31.6037 46.4574C31.6037 46.4574 32.6825 45.8231 32.9103 45.5628L33.1392 45.3019L34.1291 46.2045C34.1291 46.2045 33.1766 46.8172 33.1555 46.7972C33.136 46.7774 31.603 46.4564 31.603 46.4564L31.6037 46.4574Z" fill="#6B7B3E"/>
<path d="M31.6035 46.4573C32.4562 46.9777 33.006 47.5934 33.006 47.5934L34.1289 46.2044L31.6035 46.4573Z" fill="#4B5B19"/>
<path d="M31.8674 49.9935C31.8674 49.9935 32.9461 49.3592 33.174 49.099L33.4028 48.8381L34.3927 49.7406C34.3927 49.7406 33.4403 50.3534 33.4191 50.3333C33.3997 50.3135 31.8667 49.9925 31.8667 49.9925L31.8674 49.9935Z" fill="#6B7B3E"/>
<path d="M31.8672 49.9934C32.7198 50.5139 33.2697 51.1295 33.2697 51.1295L34.3925 49.7405L31.8672 49.9934Z" fill="#4B5B19"/>
<path d="M49.432 27.1001C49.432 27.1001 49.0405 28.3975 49.0487 28.773L49.0586 29.1488L47.6076 29.1575C47.6076 29.1575 47.916 27.9692 47.9452 27.9703C47.9755 27.9707 49.4302 27.0998 49.4302 27.0998L49.432 27.1001Z" fill="#6B7B3E"/>
<path d="M49.4325 27.1C48.3712 27.3129 47.4816 27.2271 47.4816 27.2271L47.6089 29.1584L49.4325 27.1Z" fill="#4B5B19"/>
<path d="M51.0355 28.3245C51.0355 28.3245 50.644 29.6219 50.6522 29.9974L50.6621 30.3732L49.2112 30.3819C49.2112 30.3819 49.5195 29.1936 49.5498 29.194C49.58 29.1944 51.0348 28.3235 51.0348 28.3235L51.0355 28.3245Z" fill="#6B7B3E"/>
<path d="M51.036 28.3244C49.9747 28.5372 49.0851 28.4515 49.0851 28.4515L49.2124 30.3828L51.036 28.3244Z" fill="#4B5B19"/>
<path d="M50.8551 30.3516C50.8551 30.3516 50.1582 31.5134 50.0752 31.8806L49.9932 32.247L48.5845 31.9013C48.5845 31.9013 49.1742 30.8244 49.2029 30.8334C49.2325 30.8417 50.8558 30.3526 50.8558 30.3526L50.8551 30.3516Z" fill="#6B7B3E"/>
<path d="M50.8558 30.3516C49.7754 30.2984 48.9328 29.9976 48.9328 29.9976L48.5835 31.901L50.8565 30.3526L50.8558 30.3516Z" fill="#4B5B19"/>
<path d="M49.4026 29.6548C49.4026 29.6548 49.0017 30.9496 49.0089 31.3258L49.0161 31.702L47.5651 31.7017C47.5651 31.7017 47.881 30.5158 47.9113 30.5161C47.9423 30.5175 49.4026 29.6548 49.4026 29.6548Z" fill="#6B7B3E"/>
<path d="M49.4018 29.6548C48.3391 29.8611 47.4498 29.7692 47.4498 29.7692L47.5643 31.7016L49.4008 29.6555L49.4018 29.6548Z" fill="#4B5B19"/>
<path d="M47.5699 27.1511C47.5699 27.1511 47.196 28.4546 47.2108 28.8286L47.2252 29.2044L45.7748 29.2337C45.7748 29.2337 46.0659 28.0421 46.0972 28.0418C46.1274 28.0422 47.571 27.1504 47.571 27.1504L47.5699 27.1511Z" fill="#6B7B3E"/>
<path d="M47.5692 27.1511C46.5111 27.3797 45.6203 27.3053 45.6203 27.3053L45.7747 29.2346L47.5699 27.1521L47.5692 27.1511Z" fill="#4B5B19"/>
<path d="M45.6419 24.7125C45.6419 24.7125 45.7661 26.0622 45.9167 26.4067L46.0674 26.7512L44.7271 27.3056C44.7271 27.3056 44.5661 26.089 44.5931 26.078C44.6219 26.0674 45.6419 24.7125 45.6419 24.7125Z" fill="#6B7B3E"/>
<path d="M45.6428 24.7125C44.7397 25.3096 43.8821 25.5638 43.8821 25.5638L44.7263 27.3052L45.6428 24.7125Z" fill="#4B5B19"/>
<path d="M43.2534 24.4201C43.2534 24.4201 44.1195 25.4626 44.4375 25.663L44.756 25.8617L43.9633 27.0768C43.9633 27.0768 43.1422 26.1643 43.1594 26.139C43.1767 26.1137 43.2534 24.4201 43.2534 24.4201Z" fill="#6B7B3E"/>
<path d="M43.254 24.4203C42.8461 25.4228 42.2832 26.1183 42.2832 26.1183L43.9639 27.0769L43.254 24.4203Z" fill="#4B5B19"/>
<path d="M42.1635 25.7092C42.1635 25.7092 43.0296 26.7516 43.3477 26.952L43.6661 27.1508L42.8734 28.3659C42.8734 28.3659 42.0523 27.4534 42.0703 27.4291C42.0876 27.4038 42.1642 25.7102 42.1642 25.7102L42.1635 25.7092Z" fill="#6B7B3E"/>
<path d="M42.1641 25.7093C41.7563 26.7118 41.1933 27.4074 41.1933 27.4074L42.874 28.366L42.1641 25.7093Z" fill="#4B5B19"/>
<path d="M45.9236 26.7508C45.9236 26.7508 45.6359 28.0751 45.6747 28.4492L45.7146 28.8227L44.2692 28.9475C44.2692 28.9475 44.4814 27.7392 44.5113 27.7369C44.5419 27.7355 45.9226 26.7515 45.9226 26.7515L45.9236 26.7508Z" fill="#6B7B3E"/>
<path d="M45.9245 26.7507C44.884 27.0469 43.9899 27.0317 43.9899 27.0317L44.2711 28.9467L45.9255 26.75L45.9245 26.7507Z" fill="#4B5B19"/>
<path d="M43.8237 26.5119C43.8237 26.5119 42.6004 27.8238 42.1987 27.6923C41.7961 27.5615 41.6424 26.8755 41.6424 26.8755C41.6424 26.8755 41.2415 27.7187 40.7374 27.8971C40.2332 28.0755 40.0094 27.2887 40.0094 27.2887L39.932 27.6355C39.8546 27.9823 39.6748 28.4738 39.3805 28.5813C39.0868 28.6898 38.6486 27.9936 38.6486 27.9936C38.6486 27.9936 38.8628 28.7134 38.3283 29.334C37.7946 29.9557 36.9539 29.0189 36.9539 29.0189C36.9539 29.0189 37.1498 29.5487 37.2755 29.9777C37.3662 30.285 37.3325 30.59 37.1865 30.781C37.2174 30.6369 37.228 30.5666 37.2097 30.5926C37.1748 30.6449 37.1424 30.7405 37.1075 30.8633C37.0642 30.8988 37.015 30.9278 36.9594 30.9476C36.6311 31.0603 35.7278 30.5713 35.7278 30.5713C35.7278 30.5713 36.6496 32.1535 36.4222 32.5289C36.3784 32.5857 36.3332 32.6405 36.2849 32.693C35.629 33.3843 34.2568 32.8367 34.2568 32.8367C34.2568 32.8367 35.5824 34.3268 35.0612 34.7643C34.54 35.2018 33.2508 35.3223 33.2508 35.3223C33.2508 35.3223 35.0363 36.3356 34.6462 36.9809C34.2568 37.6273 33.0902 37.9388 33.0902 37.9388C33.0902 37.9388 33.1881 37.9636 33.7823 38.3316C34.3038 38.6545 34.439 39.071 34.3159 39.5269C33.7262 40.1192 32.4989 39.8989 32.4989 39.8989C32.4989 39.8989 34.0967 41.0926 33.6752 41.6258C33.2537 42.1589 32.0138 42.5369 32.0138 42.5369C32.0138 42.5369 33.9661 43.1695 33.7142 43.8812C33.4623 44.5929 32.3819 45.1323 32.3819 45.1323C32.3819 45.1323 32.4827 45.1372 33.1386 45.3776C33.4714 45.5005 33.683 45.6789 33.7983 45.8989C33.8017 45.9942 33.7986 46.0998 33.7822 46.2145C33.7029 46.7831 32.5151 46.6605 32.5151 46.6605C32.5151 46.6605 33.6306 47.3245 33.7062 47.9046C33.7818 48.4848 32.4159 48.7835 32.4159 48.7835C32.4159 48.7835 33.9426 49.3684 33.9194 49.8013C33.8952 50.2349 32.9221 51.2909 32.9727 51.3299C33.0233 51.369 34.3952 51.2927 34.3952 51.2927L33.3856 52.6916L34.5366 52.4717L33.4774 54.5179L34.9643 54.2163L34.3437 56.3314L36.031 55.8197L35.9474 56.9569L36.5589 56.8105C36.5589 56.8105 38.4451 59.7491 40.2377 59.8874C44.2179 60.1933 48.6557 57.0894 49.9874 49.4412C50.4122 47.0033 50.5446 42.169 50.5401 41.1383C50.5276 38.4042 49.7351 34.6306 49.2668 33.4717C46.957 27.7594 44.4911 27.5247 44.0409 27.5928C43.5906 27.6609 43.8185 26.5109 43.8185 26.5109L43.8237 26.5119Z" fill="#FFE6C1"/>
<path d="M36.4209 36.2815C35.6325 38.6415 34.9893 44.0187 35.1272 46.1484C35.2643 48.277 35.2862 50.7077 36.0703 52.3235C36.8544 53.9394 38.4565 56.1129 38.69 57.0086C38.9235 57.9042 39.962 59.8209 41.5342 59.3426C43.107 58.8654 43.7391 58.5864 46.048 55.7248C48.3557 52.864 49.3812 50.3741 49.4648 47.8581C49.5491 45.3431 49.131 43.769 49.1003 42.1425C49.0542 39.6188 47.8817 32.3801 45.1552 29.3026C43.871 27.8534 39.6753 26.533 36.4196 36.2794L36.4209 36.2815Z" fill="#F4C895"/>
<path d="M36.1407 45.1357C36.1407 45.1357 36.1017 50.3294 36.5494 51.6254C36.997 52.9213 38.4319 54.6115 38.8678 55.4099C39.3036 56.2083 39.7243 57.143 39.9086 57.7331C40.093 58.3231 40.8715 59.0937 41.7364 58.575C42.6014 58.0563 43.9112 56.3735 44.9791 55.0008C46.0478 53.6292 47.627 51.6173 47.9035 50.7523C48.18 49.8873 48.1815 48.524 48.3401 46.4595C48.4976 44.3957 48.3102 42.744 48.3553 42.2617C48.5519 40.1517 47.538 35.7382 47.538 35.7382L38.312 45.6536L36.1417 45.135L36.1407 45.1357Z" fill="#E77F40"/>
<path d="M40.6346 57.6826C40.8953 57.9266 41.2915 57.9553 41.5859 57.7532C42.5926 57.066 42.4315 56.5606 45.6964 52.5918C47.218 50.742 47.6336 47.9294 47.6251 46.3883C47.6159 44.8462 48.385 41.3982 47.9079 37.3961C47.4308 33.3941 45.3793 29.9484 44.1951 29.2562C43.2873 28.7253 39.0463 28.4815 37.3892 34.5178C35.7322 40.5542 35.8753 44.3126 36.0939 47.259C36.3125 50.2053 36.615 51.7816 38.659 54.2602C40.8909 56.9664 39.9937 57.0854 40.6336 57.6833L40.6346 57.6826Z" fill="#FFCA00"/>
<path d="M40.0137 30.7754C39.6542 31.1838 39.3542 31.6507 39.0941 32.128C38.0231 34.0863 37.5086 36.3287 37.6217 38.5322C37.6918 39.9083 38.1543 41.0696 38.7566 42.2842C39.2863 43.3502 40.831 43.3317 41.7832 42.8331C42.7313 42.3374 43.3251 41.3612 43.7615 40.3918C45.087 37.4545 45.7635 33.7319 44.2563 30.7946C43.8978 30.0966 43.3841 29.5493 42.5427 29.5013C41.9687 29.4692 41.3949 29.671 40.9093 29.9868C40.5724 30.2058 40.2759 30.4753 40.012 30.7751L40.0137 30.7754Z" fill="#FFDF82"/>
<path d="M36.9994 50.7238C36.9973 50.7823 37.002 50.8421 37.0132 50.9005C37.0719 51.2266 37.2445 51.5726 37.3888 51.8704C37.5683 52.2418 37.7803 52.597 38.0199 52.9334C38.8924 54.1635 39.9058 55.017 40.1294 55.7769C40.353 56.5369 40.616 57.2489 41.0961 57.1079C41.5744 56.9666 42.1471 55.7964 42.9746 54.6941C43.8021 53.5918 45.241 51.962 45.7297 50.9194C46.2173 49.8776 46.5553 47.5589 46.65 46.5042C46.7447 45.4494 46.9355 43.6855 47.0072 42.804C47.0796 41.9235 46.2751 42.0574 45.4985 45.1265C44.7219 48.1956 43.6506 50.1646 42.3117 51.4742C41.6806 52.0917 40.7999 52.3781 39.9259 52.3042C39.5806 52.2753 39.2328 52.1942 38.92 52.0412C38.4953 51.8339 38.2633 51.4428 37.966 51.0856C37.7836 50.8663 37.5992 50.6484 37.4113 50.4343C37.3578 50.3732 37.2866 50.3062 37.2076 50.3225C37.1603 50.3322 37.1245 50.3701 37.0974 50.4095C37.0354 50.5013 37.0066 50.611 37.0022 50.7235L36.9994 50.7238Z" fill="#FFB41A"/>
<path d="M36.9518 47.4439C36.8192 47.3946 36.6736 47.4804 36.6516 47.6199C36.6205 47.8166 36.674 48.1087 37.0993 48.4027C37.8411 48.9146 39.4518 49.3343 39.8549 49.0627C40.2591 48.7904 39.8644 48.5371 39.1723 48.4219C38.4809 48.3077 37.9671 48.1656 37.6588 47.9465C37.3505 47.7274 37.1026 47.5002 36.9552 47.4446C36.9545 47.4435 36.9528 47.4432 36.9511 47.4429L36.9518 47.4439Z" fill="#FFB41A"/>
<path d="M37.2401 49.2567C37.3998 49.4074 38.6515 50.0116 38.9883 50.0523C39.3261 50.0922 39.197 50.2222 39.0561 50.2597C38.9151 50.2972 38.1569 50.0035 37.6413 49.6915C37.1257 49.3796 36.9204 49.2809 36.9717 49.2129C37.023 49.145 37.2401 49.2567 37.2401 49.2567Z" fill="#FFB41A"/>
<path d="M43.0907 46.8606C43.8188 47.1013 45.4405 47.2134 46.1603 46.9001C46.8791 46.5876 47.1637 44.8798 46.6687 44.9439C46.1727 45.0087 45.3191 45.9053 44.4178 45.9566C43.5166 46.0079 42.9576 46.0705 42.8025 46.3472C42.6474 46.6239 42.9513 46.8145 43.0907 46.8606Z" fill="#FFB41A"/>
<path d="M36.8031 42.9348C36.8031 42.9348 36.7914 45.0343 36.8952 45.7483C36.9989 46.4623 38.042 47.3811 38.9098 47.4592C39.7776 47.5372 41.4584 46.6368 41.7727 45.2944C42.0881 43.9513 41.0136 43.9046 39.7707 43.776C38.5278 43.6474 37.9232 41.8148 37.3883 41.807C36.8534 41.7993 36.8014 42.9345 36.8014 42.9345L36.8031 42.9348Z" fill="#FFDF82"/>
</svg>
